<svg id="Layer_1" data-name="Layer 1" xmlns="http://www.w3.org/2000/svg" viewBox="0 0 281.51 237.27">
  <title>UI Screens</title>
  <g>
    <g>
      <g>
        <rect x="11.23" y="18.62" width="51.94" height="77.49" style="fill: #fff"/>
        <path d="M63.17,96.37H11.23a.26.26,0,0,1-.25-.26V18.62a.25.25,0,0,1,.25-.25H63.17a.25.25,0,0,1,.25.25V96.11A.26.26,0,0,1,63.17,96.37Zm-51.69-.51H62.91v-77H11.48Z" style="fill: #333"/>
      </g>
      <g>
        <rect x="19.47" y="59.65" width="36.57" height="6.46" rx="3.23" style="fill: #fff"/>
        <path d="M52.81,66.36H22.7a3.49,3.49,0,0,1,0-7H52.81a3.49,3.49,0,1,1,0,7ZM22.7,59.9a3,3,0,0,0,0,6H52.81a3,3,0,0,0,0-6Z" style="fill: #333"/>
      </g>
      <g>
        <path d="M19.47,73.9h0a3.23,3.23,0,0,0,3.23,3.23H52.81A3.23,3.23,0,0,0,56,73.9h0a3.23,3.23,0,0,0-3.23-3.23H22.7A3.23,3.23,0,0,0,19.47,73.9Z" style="fill: #fff"/>
        <path d="M52.81,77.39H22.7a3.49,3.49,0,0,1,0-7H52.81a3.49,3.49,0,1,1,0,7ZM22.7,70.92a3,3,0,0,0,0,6H52.81a3,3,0,0,0,0-6Z" style="fill: #333"/>
      </g>
      <g>
        <rect x="25.22" y="82.51" width="23.96" height="9.69" rx="4.84" style="fill: #542ed1"/>
        <path d="M44.34,92.46H30.06a5.1,5.1,0,0,1,0-10.2H44.34a5.1,5.1,0,0,1,0,10.2ZM30.06,82.77a4.59,4.59,0,1,0,0,9.18H44.34a4.59,4.59,0,0,0,0-9.18Z" style="fill: #333"/>
      </g>
      <path d="M41.42,88.2a1.94,1.94,0,0,1-.34,0,5.52,5.52,0,0,1-1.52-.49,8.25,8.25,0,0,0-.9-.34,7.91,7.91,0,0,0-2.62-.2l-5.31.18v-.51L36,86.64a8.84,8.84,0,0,1,2.78.22,7.2,7.2,0,0,1,.95.37,5.3,5.3,0,0,0,1.38.45,2.51,2.51,0,0,0,2.32-1l.42.29A3,3,0,0,1,41.42,88.2Z" style="fill: #fff"/>
      <g>
        <path d="M28.18,51.49a15.28,15.28,0,0,0,17.55.35,11.46,11.46,0,0,0-17.55-.35Z" style="fill: #542ed1"/>
        <path d="M37.2,54.7a15.44,15.44,0,0,1-9.17-3,.25.25,0,0,1-.1-.18.22.22,0,0,1,.06-.19,11.71,11.71,0,0,1,17.94.35.28.28,0,0,1,0,.2.25.25,0,0,1-.11.17A15.43,15.43,0,0,1,37.2,54.7Zm-8.64-3.25a15,15,0,0,0,16.79.33,11.19,11.19,0,0,0-16.79-.33Z" style="fill: #333"/>
      </g>
      <path d="M37.2,54.7a15.44,15.44,0,0,1-9.17-3,15.51,15.51,0,1,1,17.84.35A15.43,15.43,0,0,1,37.2,54.7Zm0-30.53a15,15,0,1,0,15,15A15,15,0,0,0,37.2,24.17Z" style="fill: #333"/>
      <g>
        <g>
          <path d="M27.8,48.49a4.89,4.89,0,0,1-1.15,3.17,5,5,0,0,1-7.64,0,4.89,4.89,0,0,1-1.15-3.17,5,5,0,0,1,9.94,0Z" style="fill: #542ed1"/>
          <path d="M22.83,53.71a5.21,5.21,0,0,1-4-1.88,5.28,5.28,0,0,1-1.2-3.34,5.22,5.22,0,0,1,10.44,0,5.28,5.28,0,0,1-1.2,3.34A5.21,5.21,0,0,1,22.83,53.71Zm0-9.93a4.72,4.72,0,1,0,4.71,4.71A4.72,4.72,0,0,0,22.83,43.78Z" style="fill: #333"/>
        </g>
        <path d="M22.31,49.45h0a.22.22,0,0,1-.17-.09l-.68-.88a.26.26,0,0,1,0-.36.27.27,0,0,1,.36,0l.52.67,1.52-1.23a.25.25,0,1,1,.32.39l-1.72,1.4A.23.23,0,0,1,22.31,49.45Z" style="fill: #fff"/>
      </g>
    </g>
    <g>
      <g>
        <rect x="11.47" y="101.07" width="51.94" height="77.49" style="fill: #fff"/>
        <path d="M63.41,178.81H11.47a.25.25,0,0,1-.25-.25V101.07a.26.26,0,0,1,.25-.26H63.41a.26.26,0,0,1,.26.26v77.49A.26.26,0,0,1,63.41,178.81Zm-51.68-.5H63.16v-77H11.73Z" style="fill: #333"/>
      </g>
      <g>
        <rect x="19.72" y="142.09" width="36.57" height="6.46" rx="3.23" style="fill: #fff"/>
        <path d="M53.05,148.81H23a3.49,3.49,0,1,1,0-7h30.1a3.49,3.49,0,1,1,0,7ZM23,142.35a3,3,0,1,0,0,6h30.1a3,3,0,1,0,0-6Z" style="fill: #333"/>
      </g>
      <g>
        <path d="M19.72,156.35h0A3.23,3.23,0,0,0,23,159.58h30.1a3.24,3.24,0,0,0,3.24-3.23h0a3.23,3.23,0,0,0-3.24-3.23H23A3.22,3.22,0,0,0,19.72,156.35Z" style="fill: #fff"/>
        <path d="M53.05,159.83H23a3.49,3.49,0,1,1,0-7h30.1a3.49,3.49,0,1,1,0,7ZM23,153.37a3,3,0,1,0,0,5.95h30.1a3,3,0,1,0,0-5.95Z" style="fill: #333"/>
      </g>
      <g>
        <rect x="25.46" y="164.96" width="23.96" height="9.69" rx="4.84" style="fill: #542ed1"/>
        <path d="M44.58,174.9H30.3a5.1,5.1,0,0,1,0-10.19H44.58a5.1,5.1,0,1,1,0,10.19ZM30.3,165.21a4.59,4.59,0,0,0,0,9.18H44.58a4.59,4.59,0,1,0,0-9.18Z" style="fill: #333"/>
      </g>
      <path d="M41.67,170.65l-.35,0a5.46,5.46,0,0,1-1.51-.49,9.24,9.24,0,0,0-.9-.35,8.23,8.23,0,0,0-2.62-.19l-5.31.17,0-.5,5.31-.18a8.8,8.8,0,0,1,2.78.21,10,10,0,0,1,1,.37,4.79,4.79,0,0,0,1.37.45,2.5,2.5,0,0,0,2.33-1l.42.29A3.05,3.05,0,0,1,41.67,170.65Z" style="fill: #fff"/>
      <g>
        <path d="M28.43,133.94a15.24,15.24,0,0,0,17.54.34,11.45,11.45,0,0,0-17.54-.34Z" style="fill: #542ed1"/>
        <path d="M37.44,137.14a15.37,15.37,0,0,1-9.16-3,.29.29,0,0,1-.11-.18.36.36,0,0,1,.06-.2,11.7,11.7,0,0,1,17.94.36.19.19,0,0,1,0,.19.29.29,0,0,1-.1.18A15.48,15.48,0,0,1,37.44,137.14ZM28.8,133.9a15.05,15.05,0,0,0,16.8.33,11.2,11.2,0,0,0-16.8-.33Z" style="fill: #333"/>
      </g>
      <path d="M37.44,137.14a15.37,15.37,0,0,1-9.16-3,15.56,15.56,0,1,1,9.16,3Zm0-30.52a15,15,0,1,0,15,15A15,15,0,0,0,37.44,106.62Z" style="fill: #333"/>
      <g>
        <g>
          <path d="M28,130.94a5,5,0,1,1-5-5A5,5,0,0,1,28,130.94Z" style="fill: #542ed1"/>
          <path d="M23.07,136.16a5.22,5.22,0,1,1,4-1.89A5.2,5.2,0,0,1,23.07,136.16Zm0-9.93a4.71,4.71,0,1,0,4.72,4.71A4.72,4.72,0,0,0,23.07,126.23Z" style="fill: #333"/>
        </g>
        <path d="M22.56,131.89h0a.27.27,0,0,1-.18-.1l-.68-.88a.25.25,0,0,1,0-.35.24.24,0,0,1,.35,0l.53.68L24.11,130a.26.26,0,0,1,.32.4l-1.71,1.39A.27.27,0,0,1,22.56,131.89Z" style="fill: #fff"/>
      </g>
    </g>
    <path d="M38.72,63.12H24.32a.25.25,0,1,1,0-.49h14.4a.25.25,0,1,1,0,.49Z" style="fill: #333"/>
    <path d="M32.08,73.9H24.32a.25.25,0,1,1,0-.49h7.76a.25.25,0,1,1,0,.49Z" style="fill: #333"/>
    <path d="M39.72,145.67H25.32a.25.25,0,1,1,0-.49h14.4a.25.25,0,1,1,0,.49Z" style="fill: #333"/>
    <path d="M33.08,156.46H25.32a.25.25,0,1,1,0-.49h7.76a.25.25,0,1,1,0,.49Z" style="fill: #333"/>
    <g>
      <g>
        <rect x="67.22" y="18.62" width="51.94" height="77.49" style="fill: #fff"/>
        <path d="M119.16,96.37H67.22a.26.26,0,0,1-.25-.26V18.62a.25.25,0,0,1,.25-.25h51.94a.25.25,0,0,1,.25.25V96.11A.26.26,0,0,1,119.16,96.37Zm-51.69-.51H118.9v-77H67.47Z" style="fill: #333"/>
      </g>
      <g>
        <rect x="75.46" y="59.65" width="36.57" height="6.46" rx="3.23" style="fill: #fff"/>
        <path d="M108.8,66.36H78.69a3.49,3.49,0,0,1,0-7H108.8a3.49,3.49,0,0,1,0,7ZM78.69,59.9a3,3,0,0,0,0,6H108.8a3,3,0,1,0,0-6Z" style="fill: #333"/>
      </g>
      <g>
        <path d="M75.46,73.9h0a3.23,3.23,0,0,0,3.23,3.23H108.8A3.23,3.23,0,0,0,112,73.9h0a3.23,3.23,0,0,0-3.23-3.23H78.69A3.23,3.23,0,0,0,75.46,73.9Z" style="fill: #fff"/>
        <path d="M108.8,77.39H78.69a3.49,3.49,0,0,1,0-7H108.8a3.49,3.49,0,0,1,0,7ZM78.69,70.92a3,3,0,0,0,0,6H108.8a3,3,0,0,0,0-6Z" style="fill: #333"/>
      </g>
      <g>
        <rect x="81.21" y="82.51" width="23.96" height="9.69" rx="4.84" style="fill: #542ed1"/>
        <path d="M100.33,92.46H86.05a5.1,5.1,0,0,1,0-10.2h14.28a5.1,5.1,0,0,1,0,10.2ZM86.05,82.77a4.59,4.59,0,0,0,0,9.18h14.28a4.59,4.59,0,0,0,0-9.18Z" style="fill: #333"/>
      </g>
      <path d="M97.41,88.2a2.11,2.11,0,0,1-.35,0,5.57,5.57,0,0,1-1.51-.49,9.11,9.11,0,0,0-.9-.34,7.93,7.93,0,0,0-2.62-.2l-5.31.18v-.51L92,86.64a8.84,8.84,0,0,1,2.78.22,7.2,7.2,0,0,1,1,.37,5.3,5.3,0,0,0,1.38.45,2.51,2.51,0,0,0,2.32-1l.42.29A3,3,0,0,1,97.41,88.2Z" style="fill: #fff"/>
      <g>
        <path d="M84.17,51.49a15.28,15.28,0,0,0,17.55.35,11.46,11.46,0,0,0-17.55-.35Z" style="fill: #542ed1"/>
        <path d="M93.19,54.7a15.41,15.41,0,0,1-9.17-3,.25.25,0,0,1-.1-.18.22.22,0,0,1,.06-.19,11.71,11.71,0,0,1,17.94.35.28.28,0,0,1,0,.2.25.25,0,0,1-.11.17A15.43,15.43,0,0,1,93.19,54.7Zm-8.64-3.25a15,15,0,0,0,16.79.33,11.19,11.19,0,0,0-16.79-.33Z" style="fill: #333"/>
      </g>
      <path d="M93.19,54.7a15.41,15.41,0,0,1-9.17-3,15.51,15.51,0,1,1,17.84.35A15.43,15.43,0,0,1,93.19,54.7Zm0-30.53a15,15,0,1,0,15,15A15,15,0,0,0,93.19,24.17Z" style="fill: #333"/>
      <g>
        <g>
          <path d="M83.79,48.49A5,5,0,0,1,75,51.66a4.89,4.89,0,0,1-1.15-3.17,5,5,0,0,1,9.94,0Z" style="fill: #542ed1"/>
          <path d="M78.82,53.71a5.21,5.21,0,0,1-4-1.88,5.28,5.28,0,0,1-1.2-3.34,5.22,5.22,0,0,1,10.44,0,5.28,5.28,0,0,1-1.2,3.34A5.21,5.21,0,0,1,78.82,53.71Zm0-9.93a4.72,4.72,0,1,0,4.71,4.71A4.72,4.72,0,0,0,78.82,43.78Z" style="fill: #333"/>
        </g>
        <path d="M78.3,49.45h0a.22.22,0,0,1-.17-.09l-.68-.88a.26.26,0,0,1,0-.36.27.27,0,0,1,.36,0l.52.67,1.52-1.23a.25.25,0,0,1,.36,0,.26.26,0,0,1,0,.36l-1.72,1.4A.25.25,0,0,1,78.3,49.45Z" style="fill: #fff"/>
      </g>
    </g>
    <g>
      <g>
        <rect x="67.46" y="101.07" width="51.94" height="77.49" style="fill: #fff"/>
        <path d="M119.4,178.81H67.46a.25.25,0,0,1-.25-.25V101.07a.26.26,0,0,1,.25-.26H119.4a.26.26,0,0,1,.26.26v77.49A.26.26,0,0,1,119.4,178.81Zm-51.68-.5h51.43v-77H67.72Z" style="fill: #333"/>
      </g>
      <g>
        <rect x="75.71" y="142.09" width="36.57" height="6.46" rx="3.23" style="fill: #fff"/>
        <path d="M109,148.81H78.94a3.49,3.49,0,1,1,0-7H109a3.49,3.49,0,1,1,0,7Zm-30.1-6.46a3,3,0,1,0,0,6H109a3,3,0,1,0,0-6Z" style="fill: #333"/>
      </g>
      <g>
        <path d="M75.71,156.35h0a3.23,3.23,0,0,0,3.23,3.23H109a3.23,3.23,0,0,0,3.23-3.23h0a3.22,3.22,0,0,0-3.23-3.23H78.94A3.22,3.22,0,0,0,75.71,156.35Z" style="fill: #fff"/>
        <path d="M109,159.83H78.94a3.49,3.49,0,1,1,0-7H109a3.49,3.49,0,1,1,0,7Zm-30.1-6.46a3,3,0,1,0,0,5.95H109a3,3,0,1,0,0-5.95Z" style="fill: #333"/>
      </g>
      <g>
        <rect x="81.45" y="164.96" width="23.96" height="9.69" rx="4.84" style="fill: #542ed1"/>
        <path d="M100.57,174.9H86.29a5.1,5.1,0,0,1,0-10.19h14.28a5.1,5.1,0,1,1,0,10.19Zm-14.28-9.69a4.59,4.59,0,0,0,0,9.18h14.28a4.59,4.59,0,1,0,0-9.18Z" style="fill: #333"/>
      </g>
      <path d="M97.66,170.65l-.35,0a5.63,5.63,0,0,1-1.52-.49,6,6,0,0,0-3.51-.54l-5.31.17,0-.5,5.31-.18a8.82,8.82,0,0,1,2.78.21,10,10,0,0,1,1,.37,4.79,4.79,0,0,0,1.37.45,2.5,2.5,0,0,0,2.33-1l.41.29A3,3,0,0,1,97.66,170.65Z" style="fill: #fff"/>
      <g>
        <path d="M84.41,133.94a15.25,15.25,0,0,0,17.55.34,11.46,11.46,0,0,0-17.55-.34Z" style="fill: #542ed1"/>
        <path d="M93.43,137.14a15.43,15.43,0,0,1-9.17-3,.32.32,0,0,1-.1-.18.3.3,0,0,1,.06-.2,11.7,11.7,0,0,1,17.94.36.25.25,0,0,1,0,.19.27.27,0,0,1-.11.18A15.42,15.42,0,0,1,93.43,137.14Zm-8.64-3.24a15.05,15.05,0,0,0,16.8.33,11.2,11.2,0,0,0-16.8-.33Z" style="fill: #333"/>
      </g>
      <path d="M93.43,137.14a15.43,15.43,0,0,1-9.17-3,15.52,15.52,0,1,1,17.84.35A15.42,15.42,0,0,1,93.43,137.14Zm0-30.52a15,15,0,1,0,15,15A15,15,0,0,0,93.43,106.62Z" style="fill: #333"/>
      <g>
        <g>
          <path d="M84,130.94a5,5,0,1,1-9.93,0,5,5,0,1,1,9.93,0Z" style="fill: #542ed1"/>
          <path d="M79.06,136.16a5.22,5.22,0,1,1,5.22-5.22,5.22,5.22,0,0,1-5.22,5.22Zm0-9.93a4.72,4.72,0,1,0,4.71,4.71A4.71,4.71,0,0,0,79.06,126.23Z" style="fill: #333"/>
        </g>
        <path d="M78.54,131.89h0a.27.27,0,0,1-.18-.1l-.68-.88a.25.25,0,0,1,0-.35.24.24,0,0,1,.35,0l.53.68L80.1,130a.26.26,0,0,1,.32.4l-1.72,1.39A.23.23,0,0,1,78.54,131.89Z" style="fill: #fff"/>
      </g>
    </g>
    <path d="M94.71,63.12H80.31a.25.25,0,1,1,0-.49h14.4a.25.25,0,1,1,0,.49Z" style="fill: #333"/>
    <path d="M88.07,73.9H80.31a.25.25,0,1,1,0-.49h7.76a.25.25,0,1,1,0,.49Z" style="fill: #333"/>
    <path d="M95.71,145.67H81.31a.25.25,0,1,1,0-.49h14.4a.25.25,0,1,1,0,.49Z" style="fill: #333"/>
    <path d="M89.07,156.46H81.31a.25.25,0,1,1,0-.49h7.76a.25.25,0,1,1,0,.49Z" style="fill: #333"/>
    <g>
      <g>
        <g>
          <path d="M242.64,209l4.08,2.27a34.69,34.69,0,0,1-8.71,3l-1.73,6.07a2.16,2.16,0,0,1-2.09,1.58h-8a2.16,2.16,0,0,0,2.09-1.58l1.73-6.07A35,35,0,0,0,242.64,209Z" style="fill: #dedffb"/>
          <path d="M234.19,222.39h-8a.53.53,0,1,1,0-1,1.67,1.67,0,0,0,1.59-1.2l1.72-6.08a.52.52,0,0,1,.4-.37,33.92,33.92,0,0,0,12.45-5.14.57.57,0,0,1,.55,0L247,210.8a.53.53,0,0,1,0,.93,35,35,0,0,1-8.53,2.93l-1.63,5.76A2.72,2.72,0,0,1,234.19,222.39Zm-5.87-1h5.87a1.67,1.67,0,0,0,1.59-1.2l1.72-6.08a.52.52,0,0,1,.41-.37,33.74,33.74,0,0,0,7.66-2.47l-2.91-1.61a35.07,35.07,0,0,1-12.25,5l-1.63,5.76A2.74,2.74,0,0,1,228.32,221.34Z" style="fill: #333"/>
        </g>
        <g>
          <path d="M238,145.86a34.16,34.16,0,0,1,8.71,2.95l-4.08,2.28A34.3,34.3,0,0,0,230,145.86l-1.73-6.08a2.1,2.1,0,0,0-1-1.3,2,2,0,0,1,1.07-.29h5.87a2.17,2.17,0,0,1,2.09,1.59Z" style="fill: #dedffb"/>
          <path d="M242.64,151.62a.53.53,0,0,1-.3-.09,33.77,33.77,0,0,0-12.45-5.16.51.51,0,0,1-.4-.37l-1.72-6.08a1.63,1.63,0,0,0-.78-1,.52.52,0,0,1-.27-.46A.54.54,0,0,1,227,138a2.68,2.68,0,0,1,1.34-.35h5.87a2.72,2.72,0,0,1,2.6,2l1.63,5.76a35,35,0,0,1,8.54,2.94.54.54,0,0,1,.29.46.53.53,0,0,1-.27.47l-4.09,2.28A.47.47,0,0,1,242.64,151.62Zm-12.23-6.22a34.74,34.74,0,0,1,12.25,5.08l2.92-1.63a34.19,34.19,0,0,0-7.67-2.48.5.5,0,0,1-.41-.37l-1.72-6.08a1.67,1.67,0,0,0-1.59-1.2h-5.87a2.57,2.57,0,0,1,.46.92Z" style="fill: #333"/>
        </g>
        <g>
          <path d="M273.07,177.09V183a2.18,2.18,0,0,1-1.59,2.1l-6.05,1.69a34.17,34.17,0,0,1-5.23,12.67l3.07,5.48a2.18,2.18,0,0,1-.35,2.61l-4.16,4.16a2.22,2.22,0,0,1-1.82.62h-7.45a2.19,2.19,0,0,0,1.26-.62l4.16-4.16a2.18,2.18,0,0,0,.35-2.61l-3.07-5.48a34.17,34.17,0,0,0,5.23-12.67l6.05-1.69a2.18,2.18,0,0,0,1.59-2.1v-5.89a2.18,2.18,0,0,0-1.59-2.1l-6.05-1.7a34.23,34.23,0,0,0-5.23-12.64l3.08-5.51a2.18,2.18,0,0,0-.36-2.6l-4.16-4.17a2.19,2.19,0,0,0-1.43-.62h8a2.17,2.17,0,0,1,1.43.62l4.16,4.17a2.18,2.18,0,0,1,.36,2.6l-3.08,5.51a34.23,34.23,0,0,1,5.23,12.64l6.05,1.7A2.18,2.18,0,0,1,273.07,177.09Z" style="fill: #dedffb"/>
          <path d="M257.2,212.85h-7.71a.53.53,0,0,1-.53-.53.55.55,0,0,1,.46-.53,1.61,1.61,0,0,0,1-.46l4.16-4.16a1.67,1.67,0,0,0,.28-2l-3.08-5.48a.54.54,0,0,1,0-.56,33.6,33.6,0,0,0,5.16-12.47.51.51,0,0,1,.37-.4l6.05-1.7a1.65,1.65,0,0,0,1.2-1.59v-5.89a1.66,1.66,0,0,0-1.2-1.6l-6.05-1.69a.52.52,0,0,1-.37-.41,33.72,33.72,0,0,0-5.16-12.45.52.52,0,0,1,0-.55l3.08-5.51a1.65,1.65,0,0,0-.28-2l-4.15-4.16a1.66,1.66,0,0,0-1.09-.48.52.52,0,0,1-.5-.54.53.53,0,0,1,.53-.51h8a2.73,2.73,0,0,1,1.8.78l4.16,4.16a2.71,2.71,0,0,1,.45,3.23l-2.92,5.23a34.77,34.77,0,0,1,5.07,12.25l5.73,1.61a2.72,2.72,0,0,1,2,2.61V183a2.72,2.72,0,0,1-2,2.6l-5.73,1.61a34.53,34.53,0,0,1-5.07,12.27l2.91,5.2a2.71,2.71,0,0,1-.44,3.24l-4.16,4.16A2.73,2.73,0,0,1,257.2,212.85Zm-7.71-.54Zm1.91-.53H257a1.68,1.68,0,0,0,1.37-.47l4.16-4.16a1.65,1.65,0,0,0,.28-2l-3.08-5.48a.54.54,0,0,1,0-.56,33.6,33.6,0,0,0,5.16-12.47.51.51,0,0,1,.37-.4l6-1.7a1.65,1.65,0,0,0,1.2-1.59v-5.89a1.66,1.66,0,0,0-1.2-1.6l-6-1.69a.52.52,0,0,1-.37-.41,33.72,33.72,0,0,0-5.16-12.45.52.52,0,0,1,0-.55l3.08-5.51a1.65,1.65,0,0,0-.28-2l-4.15-4.16a1.68,1.68,0,0,0-1.08-.48H251.4l3.88,3.89a2.71,2.71,0,0,1,.45,3.23l-2.92,5.23a34.77,34.77,0,0,1,5.07,12.25l5.73,1.61a2.72,2.72,0,0,1,2,2.61V183a2.72,2.72,0,0,1-2,2.6l-5.73,1.61a34.71,34.71,0,0,1-5.07,12.27l2.91,5.2a2.72,2.72,0,0,1-.44,3.24Z" style="fill: #333"/>
        </g>
        <g>
          <path d="M263.47,175l-6.05-1.7a34.23,34.23,0,0,0-5.23-12.64l3.08-5.51a2.18,2.18,0,0,0-.36-2.6l-4.16-4.17a2.19,2.19,0,0,0-2.61-.35l-5.5,3.07A34.3,34.3,0,0,0,230,145.86l-1.73-6.08a2.17,2.17,0,0,0-2.09-1.59h-5.87a2.2,2.2,0,0,0-2.11,1.59l-1.72,6.08a34.38,34.38,0,0,0-12.64,5.23L198.33,148a2.18,2.18,0,0,0-2.6.35l-4.16,4.17a2.17,2.17,0,0,0-.36,2.6l3.08,5.51a34.42,34.42,0,0,0-5.24,12.64l-6,1.7a2.16,2.16,0,0,0-1.59,2.1V183a2.17,2.17,0,0,0,1.59,2.1l6,1.69a34.35,34.35,0,0,0,5.24,12.67l-3.08,5.48a2.2,2.2,0,0,0,.37,2.61l4.15,4.16a2.18,2.18,0,0,0,2.6.36l5.51-3.06a35.05,35.05,0,0,0,12.64,5.22l1.72,6.07a2.19,2.19,0,0,0,2.11,1.58h5.87a2.16,2.16,0,0,0,2.09-1.58l1.73-6.07A35,35,0,0,0,242.64,209l5.51,3.06a2.18,2.18,0,0,0,2.6-.36l4.16-4.16a2.18,2.18,0,0,0,.35-2.61l-3.07-5.48a34.17,34.17,0,0,0,5.23-12.67l6.05-1.69a2.18,2.18,0,0,0,1.59-2.1v-5.89A2.18,2.18,0,0,0,263.47,175Zm-56.41,5a16.18,16.18,0,1,1,16.19,16.17A16.18,16.18,0,0,1,207.06,180Z" style="fill: #fff"/>
          <path d="M226.18,222.39h-5.87a2.72,2.72,0,0,1-2.61-2l-1.64-5.76a35.1,35.1,0,0,1-12.24-5l-5.23,2.9a2.71,2.71,0,0,1-3.23-.45l-4.16-4.16a2.73,2.73,0,0,1-.45-3.23l2.92-5.21a34.56,34.56,0,0,1-5.07-12.27l-5.74-1.61a2.72,2.72,0,0,1-2-2.6v-5.89a2.71,2.71,0,0,1,2-2.61l5.73-1.61a34.8,34.8,0,0,1,5.07-12.25l-2.92-5.23a2.7,2.7,0,0,1,.45-3.23l4.16-4.16a2.72,2.72,0,0,1,3.23-.44l5.23,2.92a34.85,34.85,0,0,1,12.24-5.08l1.64-5.76a2.72,2.72,0,0,1,2.61-2h5.87a2.72,2.72,0,0,1,2.6,2l1.63,5.76a34.74,34.74,0,0,1,12.25,5.08l5.23-2.92a2.72,2.72,0,0,1,3.23.44l4.16,4.16a2.71,2.71,0,0,1,.45,3.23l-2.92,5.23a34.77,34.77,0,0,1,5.07,12.25l5.73,1.61a2.72,2.72,0,0,1,2,2.61V183a2.72,2.72,0,0,1-2,2.6l-5.73,1.61a34.71,34.71,0,0,1-5.07,12.27l2.91,5.2a2.72,2.72,0,0,1-.44,3.24l-4.16,4.16a2.71,2.71,0,0,1-3.23.45l-5.23-2.9a35.07,35.07,0,0,1-12.25,5l-1.63,5.76A2.72,2.72,0,0,1,226.18,222.39Zm-22.34-13.92a.57.57,0,0,1,.29.08,34.13,34.13,0,0,0,12.45,5.14.53.53,0,0,1,.41.37l1.72,6.08a1.67,1.67,0,0,0,1.6,1.2h5.87a1.67,1.67,0,0,0,1.59-1.2l1.72-6.08a.52.52,0,0,1,.4-.37,33.92,33.92,0,0,0,12.45-5.14.57.57,0,0,1,.55,0l5.51,3.06a1.65,1.65,0,0,0,2-.27l4.16-4.16a1.67,1.67,0,0,0,.28-2l-3.08-5.48a.54.54,0,0,1,0-.56,33.6,33.6,0,0,0,5.16-12.47.51.51,0,0,1,.37-.4l6.05-1.7a1.65,1.65,0,0,0,1.2-1.59v-5.89a1.66,1.66,0,0,0-1.2-1.6h0l-6.05-1.69a.52.52,0,0,1-.37-.41,33.72,33.72,0,0,0-5.16-12.45.52.52,0,0,1,0-.55l3.08-5.51a1.65,1.65,0,0,0-.28-2l-4.15-4.16a1.67,1.67,0,0,0-2-.27l-5.51,3.07a.52.52,0,0,1-.55,0,33.77,33.77,0,0,0-12.45-5.16.51.51,0,0,1-.4-.37l-1.72-6.08a1.67,1.67,0,0,0-1.59-1.2h-5.87a1.67,1.67,0,0,0-1.6,1.2L217,146a.52.52,0,0,1-.41.37,33.8,33.8,0,0,0-12.44,5.16.54.54,0,0,1-.56,0l-5.5-3.07a1.66,1.66,0,0,0-2,.27l-4.16,4.16a1.65,1.65,0,0,0-.27,2l3.08,5.51a.52.52,0,0,1,0,.55,33.9,33.9,0,0,0-5.15,12.45.53.53,0,0,1-.37.41l-6,1.69a1.67,1.67,0,0,0-1.21,1.6V183a1.66,1.66,0,0,0,1.21,1.59l6,1.7a.52.52,0,0,1,.37.4,33.54,33.54,0,0,0,5.15,12.47.54.54,0,0,1,0,.56l-3.08,5.48a1.67,1.67,0,0,0,.28,2l4.15,4.16a1.68,1.68,0,0,0,2,.27l5.51-3.06A.54.54,0,0,1,203.84,208.47Zm19.41-11.75A16.69,16.69,0,1,1,239.94,180,16.73,16.73,0,0,1,223.25,196.72Zm0-32.33A15.64,15.64,0,1,0,238.89,180,15.67,15.67,0,0,0,223.25,164.39Z" style="fill: #333"/>
        </g>
        <g>
          <path d="M223.26,157.67A22.36,22.36,0,1,0,245.61,180,22.37,22.37,0,0,0,223.26,157.67Zm0,38.53A16.17,16.17,0,1,1,239.42,180,16.17,16.17,0,0,1,223.25,196.2Z" style="fill: #dedffb"/>
          <path d="M223.26,202.91A22.89,22.89,0,1,1,246.14,180,22.92,22.92,0,0,1,223.26,202.91Zm0-44.71A21.83,21.83,0,1,0,245.08,180,21.87,21.87,0,0,0,223.26,158.2Zm0,38.52A16.69,16.69,0,1,1,239.94,180,16.73,16.73,0,0,1,223.25,196.72Zm0-32.33A15.64,15.64,0,1,0,238.89,180,15.67,15.67,0,0,0,223.25,164.39Z" style="fill: #333"/>
        </g>
      </g>
      <g>
        <g>
          <path d="M204.25,115.05,190.53,111a36.19,36.19,0,0,0-32.2,5.82l-50.65,38.32,18,25.48Z" style="fill: #542ed1"/>
          <path d="M125.72,181.1h-.07a.5.5,0,0,1-.36-.21l-18-25.48a.54.54,0,0,1,.11-.73L158,116.35a36.85,36.85,0,0,1,32.67-5.9l13.72,4.09a.54.54,0,0,1,.37.4.52.52,0,0,1-.18.51L126.06,181A.54.54,0,0,1,125.72,181.1ZM108.4,155.2l17.42,24.6,77.34-64.53-12.78-3.82a35.82,35.82,0,0,0-31.73,5.74Z" style="fill: #333"/>
        </g>
        <g>
          <g>
            <path d="M114.05,193.79c-1.3,1.43-2.71,2.82-4.19,4.2L69,159.67l3.8-4a6.6,6.6,0,0,1,6.78-1.79L96.25,159s7.45-4.33,9.81-1.63-6.39,9.85-6.39,9.85a40.28,40.28,0,0,0,13.72,13.41,34.74,34.74,0,0,0,7.63,3.51A46.79,46.79,0,0,1,114.05,193.79Z" style="fill: #542ed1"/>
            <path d="M109.86,198.51a.5.5,0,0,1-.36-.14L68.66,160.05a.52.52,0,0,1,0-.74l3.79-4.05a7.17,7.17,0,0,1,7.33-1.93l16.42,5.12c1.42-.79,7.86-4.18,10.27-1.41a2.31,2.31,0,0,1,.55,1.82c-.27,3-5.23,7.32-6.64,8.5a39.6,39.6,0,0,0,13.3,12.84,35.08,35.08,0,0,0,7.5,3.45.49.49,0,0,1,.34.3.51.51,0,0,1,0,.45,46.72,46.72,0,0,1-7,9.75c-1.25,1.36-2.63,2.75-4.22,4.22A.5.5,0,0,1,109.86,198.51Zm-40.1-38.87,40.1,37.63c1.42-1.34,2.67-2.59,3.8-3.84h0a46.61,46.61,0,0,0,6.6-9,37.37,37.37,0,0,1-7.14-3.37,41,41,0,0,1-13.9-13.58.53.53,0,0,1,.12-.69c1.76-1.4,6.39-5.58,6.62-8.07a1.33,1.33,0,0,0-.3-1c-1.7-1.94-7.18.6-9.15,1.75a.52.52,0,0,1-.42,0l-16.65-5.19A6.12,6.12,0,0,0,73.2,156Z" style="fill: #333"/>
          </g>
          <g>
            <path d="M124.09,178.22,118,183a40.89,40.89,0,0,1-18.32-15.77s6.57-5.23,6.81-8.48l2.4-2Z" style="fill: #fff"/>
            <path d="M118,183.54a.52.52,0,0,1-.21,0,41.43,41.43,0,0,1-18.56-16,.53.53,0,0,1,.12-.69c1.78-1.41,6.43-5.62,6.62-8.1a.56.56,0,0,1,.19-.37l2.39-2a.5.5,0,0,1,.41-.12.55.55,0,0,1,.36.22l15.21,21.44a.53.53,0,0,1-.1.72l-6.1,4.79A.51.51,0,0,1,118,183.54Zm-17.63-16.18a40.38,40.38,0,0,0,17.55,15l5.46-4.29-14.59-20.57L107,159C106.53,162,101.75,166.21,100.36,167.36Z" style="fill: #333"/>
          </g>
          <path d="M109.24,192.58a.5.5,0,0,1-.36-.14l-38-34.78a.52.52,0,1,1,.71-.77l38,34.78a.52.52,0,0,1,0,.74A.56.56,0,0,1,109.24,192.58Z" style="fill: #333"/>
          <path d="M95.74,163.54h-.07a.52.52,0,0,1-.45-.59l.51-4a.52.52,0,0,1,.59-.45.52.52,0,0,1,.45.59l-.51,4A.52.52,0,0,1,95.74,163.54Z" style="fill: #333"/>
          <path d="M92.32,162.63h-.07a.54.54,0,0,1-.46-.59l.51-4a.53.53,0,0,1,1,.14l-.51,4A.53.53,0,0,1,92.32,162.63Z" style="fill: #333"/>
          <path d="M89,161.54H89a.53.53,0,0,1-.46-.58l.51-4a.53.53,0,0,1,.59-.45.52.52,0,0,1,.46.58l-.51,4A.53.53,0,0,1,89,161.54Z" style="fill: #333"/>
          <path d="M114.05,194.32h0a.53.53,0,0,1-.39-.2,11.61,11.61,0,0,1-.7-13.76.54.54,0,0,1,.71-.16,35.08,35.08,0,0,0,7.5,3.45.49.49,0,0,1,.34.3.51.51,0,0,1,0,.45,46.72,46.72,0,0,1-7,9.75A.56.56,0,0,1,114.05,194.32Zm-.49-13a10.58,10.58,0,0,0,.52,11.61,46.06,46.06,0,0,0,6.18-8.5A37.43,37.43,0,0,1,113.56,181.36Z" style="fill: #333"/>
        </g>
        <path d="M127.6,169.58a.51.51,0,0,1-.43-.22L114,150.4a.52.52,0,0,1,.13-.73.53.53,0,0,1,.73.13l13.16,19a.52.52,0,0,1-.13.73A.53.53,0,0,1,127.6,169.58Z" style="fill: #333"/>
      </g>
      <g>
        <path d="M155,59.81l18.64,29.84c3.76,5.81,10.91,6.84,15.83,3l7.25-5.7L186.87,72.6l-4.15,3.34s-12.53-18.82-19.48-25.7c-3.46-3.43-15-11.44-17.44-8.71s5.95,7.27,5.95,7.27" style="fill: #fff"/>
        <path d="M182.93,95.45a11.39,11.39,0,0,1-1.83-.15,11.71,11.71,0,0,1-7.9-5.36L154.56,60.09a.52.52,0,0,1,.16-.72.53.53,0,0,1,.73.16l18.64,29.84a10.64,10.64,0,0,0,7.18,4.89,9.94,9.94,0,0,0,7.87-2.05L196,86.82l-9.24-13.45-3.71,3a.56.56,0,0,1-.41.11.49.49,0,0,1-.36-.23c-.13-.18-12.58-18.85-19.41-25.62-3.18-3.16-11.87-9.11-15.54-9.11h-.1a1.34,1.34,0,0,0-1,.38,1,1,0,0,0-.26.9c.32,1.93,4.49,4.67,6.07,5.56a.53.53,0,0,1-.52.92c-.62-.35-6.13-3.53-6.59-6.31a2.05,2.05,0,0,1,.51-1.77,2.37,2.37,0,0,1,1.79-.73c4.17-.13,13.44,6.47,16.41,9.41,6.29,6.23,17.22,22.33,19.22,25.31l3.71-3a.54.54,0,0,1,.41-.11.51.51,0,0,1,.35.22l9.85,14.33a.53.53,0,0,1-.11.72L189.79,93A11.05,11.05,0,0,1,182.93,95.45Z" style="fill: #333"/>
      </g>
      <g>
        <path d="M254.55,89.77V75.32A13.55,13.55,0,0,0,241,61.78H206.28a14,14,0,0,0-7.74,2.33l-12.46,8.26,10,16.73,4.4-4.15-9.37,30.75L242.52,117l-.37-26.81Z" style="fill: #333"/>
        <path d="M242.52,117.51h0l-51.43-1.29a.51.51,0,0,1-.41-.21.53.53,0,0,1-.08-.47l8.79-28.84-3,2.79a.55.55,0,0,1-.44.14.59.59,0,0,1-.38-.26l-10-16.73a.52.52,0,0,1,.16-.71l12.46-8.26a14.53,14.53,0,0,1,8-2.42H241a14.09,14.09,0,0,1,14.08,14.07V89.77a.54.54,0,0,1-.51.53l-11.89.39L243,117a.5.5,0,0,1-.15.38A.51.51,0,0,1,242.52,117.51Zm-50.73-2.32L242,116.45l-.36-26.26a.54.54,0,0,1,.51-.54L254,89.26V75.32a13,13,0,0,0-13-13H206.28a13.47,13.47,0,0,0-7.45,2.25l-12,8,9.37,15.74,3.93-3.7a.52.52,0,0,1,.86.54Zm62.76-25.42Z" style="fill: #333"/>
      </g>
      <g>
        <path d="M227.77,142.86H189.92l-16.57,51.91-28.93-10.58,21.17-61.76a11.32,11.32,0,0,1,10.7-7.64h66.05v13.5A14.57,14.57,0,0,1,227.77,142.86Z" style="fill: #542ed1"/>
        <path d="M173.35,195.3a.52.52,0,0,1-.18,0l-28.93-10.58a.54.54,0,0,1-.32-.67l21.17-61.76a11.85,11.85,0,0,1,11.2-8h66.05a.52.52,0,0,1,.52.53v13.5a15.12,15.12,0,0,1-15.09,15.1H190.3l-16.45,51.54a.53.53,0,0,1-.27.32A.59.59,0,0,1,173.35,195.3Zm-28.26-11.43L173,194.09l16.41-51.39a.53.53,0,0,1,.5-.37h37.85a14.06,14.06,0,0,0,14-14v-13H176.29a10.78,10.78,0,0,0-10.2,7.28Z" style="fill: #333"/>
      </g>
      <g>
        <g>
          <path d="M171.52,211.53c-.21,1.92-.52,3.88-.91,5.86L115,210.53l.68-5.51a6.6,6.6,0,0,1,4.42-5.44l16.5-5.63s3.47-7.89,7-7.1c3.66.82.66,11.73.66,11.73a40.47,40.47,0,0,0,19,2.73,35.11,35.11,0,0,0,8.23-1.67A46.75,46.75,0,0,1,171.52,211.53Z" style="fill: #542ed1"/>
          <path d="M170.61,217.92h-.06L115,211.06a.53.53,0,0,1-.46-.59l.68-5.51a7.16,7.16,0,0,1,4.77-5.88l16.29-5.55c.67-1.48,3.88-8,7.46-7.2a2.35,2.35,0,0,1,1.52,1.15c1.55,2.59.1,9-.35,10.78a39.42,39.42,0,0,0,18.31,2.52,34.91,34.91,0,0,0,8.09-1.63.5.5,0,0,1,.46,0,.51.51,0,0,1,.25.37,46.75,46.75,0,0,1,0,12c-.2,1.84-.5,3.77-.91,5.9A.53.53,0,0,1,170.61,217.92Zm-55-7.85,54.57,6.74c.36-1.91.62-3.66.81-5.34h0a46,46,0,0,0,0-11.13,37.61,37.61,0,0,1-7.74,1.49,41.16,41.16,0,0,1-19.24-2.76.54.54,0,0,1-.31-.63c.6-2.17,1.87-8.28.59-10.42a1.34,1.34,0,0,0-.85-.66c-2.52-.57-5.45,4.72-6.36,6.81a.55.55,0,0,1-.32.28l-16.5,5.63a6.12,6.12,0,0,0-4.07,5Z" style="fill: #333"/>
        </g>
        <g>
          <path d="M170.26,193.65l-1.91,6.86a41,41,0,0,1-24.1-1.93s2.22-8.1.5-10.87l.86-3.08Z" style="fill: #fff"/>
          <path d="M159.33,202a40.35,40.35,0,0,1-15.28-3,.52.52,0,0,1-.31-.62c.6-2.19,1.88-8.34.57-10.45a.52.52,0,0,1-.06-.42l.85-3.08a.53.53,0,0,1,.27-.33.51.51,0,0,1,.42,0l24.65,9a.54.54,0,0,1,.33.64l-1.91,6.86a.56.56,0,0,1-.39.37A41.93,41.93,0,0,1,159.33,202Zm-14.45-3.76a40.35,40.35,0,0,0,23.05,1.8l1.7-6.09L146,185.32l-.64,2.32C146.72,190.34,145.32,196.51,144.88,198.26Z" style="fill: #333"/>
        </g>
        <path d="M166.61,213.49h-.06l-51.18-5.69a.51.51,0,0,1-.46-.58.53.53,0,0,1,.58-.47l51.18,5.69a.53.53,0,0,1,.46.59A.51.51,0,0,1,166.61,213.49Z" style="fill: #333"/>
        <path d="M138.58,198a.51.51,0,0,1-.46-.28l-1.94-3.52a.53.53,0,0,1,.2-.72.53.53,0,0,1,.72.21l1.94,3.52a.53.53,0,0,1-.21.72A.55.55,0,0,1,138.58,198Z" style="fill: #333"/>
        <path d="M135.28,199.29a.52.52,0,0,1-.46-.27l-1.94-3.53a.52.52,0,0,1,.2-.72.54.54,0,0,1,.72.21l1.94,3.53a.52.52,0,0,1-.21.71A.45.45,0,0,1,135.28,199.29Z" style="fill: #333"/>
        <path d="M132,200.35a.51.51,0,0,1-.46-.28l-1.94-3.52a.53.53,0,1,1,.92-.51l1.94,3.53a.52.52,0,0,1-.21.71A.45.45,0,0,1,132,200.35Z" style="fill: #333"/>
        <path d="M171.52,212.06l-.13,0a11.63,11.63,0,0,1-8.68-10.71.54.54,0,0,1,.48-.55,34.91,34.91,0,0,0,8.09-1.63.5.5,0,0,1,.46,0,.51.51,0,0,1,.25.37,46.75,46.75,0,0,1,0,12,.47.47,0,0,1-.22.37A.54.54,0,0,1,171.52,212.06Zm-7.72-10.28a10.57,10.57,0,0,0,7.26,9.07,44.86,44.86,0,0,0,0-10.51A36.77,36.77,0,0,1,163.8,201.78Z" style="fill: #333"/>
      </g>
      <path d="M163.33,182.33l-.18,0a.53.53,0,0,1-.31-.68l16.57-46.11a9.17,9.17,0,0,1,8.6-6h42.13a.52.52,0,0,1,.52.52.52.52,0,0,1-.52.53H188a8.11,8.11,0,0,0-7.61,5.35L163.83,182A.53.53,0,0,1,163.33,182.33Z" style="fill: #333"/>
      <path d="M175.9,187.32a.48.48,0,0,1-.2,0l-22.65-9a.54.54,0,0,1-.3-.69.53.53,0,0,1,.69-.29l22.65,9a.53.53,0,0,1-.19,1Z" style="fill: #333"/>
      <g>
        <path d="M213.41,37.2c-2.09,2.56-8.39,15.43-3.6,18.69,2.7,1.84,7.9,1.89,11.07,1.09l-2.15.32c-.65,2.25-1.86,4.59-2,5.28,4,4.35,10.82,4.78,13.56-.8.06-2.22-.15-7.91-.05-10.58C237.24,33.59,218.84,30.17,213.41,37.2Z" style="fill: #fff"/>
        <path d="M223.83,66.43a10.41,10.41,0,0,1-7.5-3.5.53.53,0,0,1-.13-.47,15,15,0,0,1,.62-1.6c.35-.81.8-1.86,1.16-2.92-2.87.2-6.32-.15-8.47-1.62a4.62,4.62,0,0,1-1.9-3.35c-.77-5.28,3.7-14,5.39-16.1,3-3.85,9.51-4.8,14.28-2.08,2.46,1.4,7.7,5.81,3.47,16.52,0,1.48,0,3.88,0,6,0,1.78.06,3.47,0,4.47a.54.54,0,0,1-.05.22A7.53,7.53,0,0,1,225,66.35,7.33,7.33,0,0,1,223.83,66.43Zm-6.52-4a9,9,0,0,0,7.52,2.87,6.52,6.52,0,0,0,4.93-3.66c0-1,0-2.61,0-4.31,0-2.29-.08-4.66,0-6.16a.57.57,0,0,1,0-.18c2.81-7,1.72-12.62-3-15.3-4.27-2.43-10.31-1.58-12.93,1.82h0c-1.56,1.92-5.88,10.39-5.16,15.29a3.62,3.62,0,0,0,1.44,2.63c1.92,1.31,5.39,1.69,8.35,1.4a.48.48,0,0,1,.2-.07l2.15-.32a.51.51,0,0,1,.59.41.52.52,0,0,1-.39.62,16,16,0,0,1-1.88.34c-.39,1.25-.93,2.5-1.33,3.44C217.6,61.72,217.42,62.15,217.31,62.44Zm-3.9-25.24h0Z" style="fill: #333"/>
      </g>
      <g>
        <path d="M211.88,39.45c1.37,1.45,3.61,1.72,5.59,1.48a5,5,0,0,0,2.23-.75A3,3,0,0,0,221,38.29a5.6,5.6,0,0,0,3.45,3.16,5.75,5.75,0,0,0,4.67-.69,15.28,15.28,0,0,0-3.38,6.72c1.37-1.41,4.29-3.17,6.33-1.75,1,.67.75,2.26.34,3.36s-2,1.95-2.75,2.86a4.5,4.5,0,0,0,8.4-2,2.6,2.6,0,0,0,3.21-1,6.09,6.09,0,0,0,.87-3.51,9.75,9.75,0,0,0-.47-3.4,6.61,6.61,0,0,0-5.15-4.21,3.62,3.62,0,0,0,0-5.12,5.55,5.55,0,0,0-5.38-1.16,5.28,5.28,0,0,0-9.77-2.48,2.58,2.58,0,0,0-2.2-2.35,3.47,3.47,0,0,0-3.08,1.3A5.29,5.29,0,0,0,215,31.28a2.82,2.82,0,0,0-3.94-.19,4.36,4.36,0,0,0-1.21,4.06A9.13,9.13,0,0,0,211.88,39.45Z" style="fill: #333"/>
        <path d="M233.67,54.74a5.21,5.21,0,0,1-4.45-2.53.53.53,0,0,1,.05-.6,8.71,8.71,0,0,1,1.17-1.08,4.87,4.87,0,0,0,1.5-1.62c.38-1,.49-2.31-.15-2.75-1.74-1.21-4.39.39-5.65,1.69a.53.53,0,0,1-.64.09.54.54,0,0,1-.25-.6l.06-.21A15.81,15.81,0,0,1,227.54,42a6,6,0,0,1-3.23-.06,6.14,6.14,0,0,1-3.23-2.43,3.8,3.8,0,0,1-1.09,1.1,5.6,5.6,0,0,1-2.45.84c-1.51.18-4.29.21-6-1.65a9.56,9.56,0,0,1-2.17-4.57,4.89,4.89,0,0,1,1.38-4.55,3.59,3.59,0,0,1,2.67-.82,3,3,0,0,1,1.2.37,5.42,5.42,0,0,1,1.12-2.55,4,4,0,0,1,3.57-1.49,3.23,3.23,0,0,1,2.36,1.7,5.79,5.79,0,0,1,10,3,5.9,5.9,0,0,1,5.29,1.43,4.38,4.38,0,0,1,1.21,3.28,3.7,3.7,0,0,1-.59,1.89,7.17,7.17,0,0,1,4.65,4.35,9.91,9.91,0,0,1,.5,3.58,6.6,6.6,0,0,1-1,3.82,3.33,3.33,0,0,1-3.2,1.38,5.2,5.2,0,0,1-3.76,4A4.4,4.4,0,0,1,233.67,54.74ZM230.34,52a4.15,4.15,0,0,0,4.18,1.58,4.1,4.1,0,0,0,3-3.69.54.54,0,0,1,.27-.44.53.53,0,0,1,.52,0,2.08,2.08,0,0,0,2.52-.81,5.67,5.67,0,0,0,.77-3.22,9.21,9.21,0,0,0-.44-3.21,6.08,6.08,0,0,0-4.72-3.87A.5.5,0,0,1,236,38a.51.51,0,0,1,.17-.54,2.53,2.53,0,0,0,.86-1.87,3.3,3.3,0,0,0-.91-2.48,5,5,0,0,0-4.86-1,.55.55,0,0,1-.45-.08.57.57,0,0,1-.21-.4,4.75,4.75,0,0,0-8.8-2.23.52.52,0,0,1-1-.27,2.06,2.06,0,0,0-1.76-1.84,2.94,2.94,0,0,0-2.6,1.12,4.81,4.81,0,0,0-1,2.93.53.53,0,0,1-.95.31,1.82,1.82,0,0,0-1.31-.68,2.52,2.52,0,0,0-1.87.56,3.89,3.89,0,0,0-1,3.57,8.63,8.63,0,0,0,1.89,4h0c1.44,1.52,3.84,1.48,5.15,1.32a4.55,4.55,0,0,0,2-.67,2.43,2.43,0,0,0,1.09-1.54.53.53,0,0,1,1-.11,5,5,0,0,0,3.11,2.85,5.21,5.21,0,0,0,4.24-.62.53.53,0,0,1,.69.78A13.87,13.87,0,0,0,226.76,46c1.66-1.13,3.89-1.87,5.63-.67,1.18.82,1.05,2.6.53,4a5.42,5.42,0,0,1-1.81,2.06C230.83,51.57,230.56,51.79,230.34,52Z" style="fill: #333"/>
      </g>
      <g>
        <path d="M225.69,47.67A4.19,4.19,0,1,1,228.37,53" style="fill: #fff"/>
        <path d="M229.67,53.69a4.7,4.7,0,0,1-1.47-.23.53.53,0,0,1,.33-1,3.66,3.66,0,1,0-2.34-4.63.52.52,0,1,1-1-.32,4.72,4.72,0,1,1,4.48,6.18Z" style="fill: #333"/>
      </g>
      <g>
        <path d="M228.3,48.53a1.45,1.45,0,1,1,.92,1.82" style="fill: #fff"/>
        <path d="M229.67,51a1.86,1.86,0,0,1-.61-.1.52.52,0,0,1-.34-.66.53.53,0,0,1,.67-.34.92.92,0,0,0,1.16-.58.92.92,0,1,0-1.75-.58.53.53,0,1,1-1-.33A2,2,0,1,1,229.67,51Z" style="fill: #333"/>
      </g>
      <g>
        <path d="M147.59,50.1A2,2,0,0,1,150,48.44c3.22.54,5.9,1.47,6,2.9.12,2.38-4.67,1.7-6.3,1.4a2,2,0,0,1-1-.48A2.55,2.55,0,0,1,147.59,50.1Z" style="fill: #fff"/>
        <path d="M152.78,53.59a18.73,18.73,0,0,1-3.25-.33,2.54,2.54,0,0,1-1.26-.62,3.06,3.06,0,0,1-1.21-2.6h0a2.32,2.32,0,0,1,.94-1.62,2.66,2.66,0,0,1,2-.5c4.17.7,6.33,1.84,6.41,3.4a1.79,1.79,0,0,1-.61,1.49A4.83,4.83,0,0,1,152.78,53.59Zm-4.67-3.44a2.07,2.07,0,0,0,.87,1.72,1.5,1.5,0,0,0,.74.35c2.65.49,4.72.41,5.42-.2a.76.76,0,0,0,.26-.65c0-.72-1.51-1.74-5.53-2.41a1.65,1.65,0,0,0-1.24.3,1.28,1.28,0,0,0-.52.89Z" style="fill: #333"/>
      </g>
      <g>
        <path d="M148.86,54.58a1.78,1.78,0,0,1,1.77-1.84c2.87-.07,5.36.28,5.66,1.51.51,2-3.75,2.26-5.22,2.28a1.73,1.73,0,0,1-.94-.26A2.22,2.22,0,0,1,148.86,54.58Z" style="fill: #fff"/>
        <path d="M151.05,57.05a2.28,2.28,0,0,1-1.2-.33,2.76,2.76,0,0,1-1.52-2.1h0a2.13,2.13,0,0,1,.55-1.6,2.43,2.43,0,0,1,1.73-.8c3.77-.1,5.85.54,6.19,1.9a1.62,1.62,0,0,1-.28,1.45c-1,1.25-3.82,1.47-5.44,1.48Zm-1.67-2.51a1.79,1.79,0,0,0,1,1.28,1.29,1.29,0,0,0,.67.18c2.35,0,4.12-.44,4.61-1.07a.56.56,0,0,0,.1-.55c-.15-.6-1.57-1.21-5.14-1.11a1.35,1.35,0,0,0-1,.45,1.09,1.09,0,0,0-.29.82Z" style="fill: #333"/>
      </g>
      <g>
        <path d="M150,58a1.77,1.77,0,0,1,1.77-1.83c2.87-.08,5.36.27,5.66,1.5.51,2-3.75,2.27-5.22,2.28a1.81,1.81,0,0,1-.94-.25A2.24,2.24,0,0,1,150,58Z" style="fill: #fff"/>
        <path d="M152.18,60.5a2.38,2.38,0,0,1-1.2-.33,2.76,2.76,0,0,1-1.51-2.1,2.1,2.1,0,0,1,.55-1.61,2.4,2.4,0,0,1,1.73-.8c3.77-.1,5.85.54,6.19,1.91a1.66,1.66,0,0,1-.29,1.45c-1,1.24-3.82,1.46-5.44,1.48ZM150.51,58a1.78,1.78,0,0,0,1,1.29,1.31,1.31,0,0,0,.67.17c2.35,0,4.12-.43,4.61-1.07a.56.56,0,0,0,.1-.55c-.15-.6-1.58-1.2-5.14-1.11a1.38,1.38,0,0,0-1,.45A1.12,1.12,0,0,0,150.51,58Z" style="fill: #333"/>
      </g>
      <g>
        <path d="M163.24,50.24s0-9.15-2.85-8.91c-3,.26-1.76,5.73-1.76,5.73s-3.56,2.27.87,6" style="fill: #fff"/>
        <path d="M159.5,53.59a.52.52,0,0,1-.34-.12c-1.69-1.43-2.5-2.85-2.4-4.22A3.56,3.56,0,0,1,158,46.84c-.17-.94-.54-3.6.51-5.05a2.4,2.4,0,0,1,1.8-1,1.84,1.84,0,0,1,1.4.51c1.95,1.79,2,8.2,2,8.93a.52.52,0,0,1-.53.52h0a.52.52,0,0,1-.53-.52c0-1.84-.3-6.9-1.67-8.15a.8.8,0,0,0-.6-.24,1.36,1.36,0,0,0-1,.56c-.82,1.13-.47,3.65-.26,4.53a.52.52,0,0,1-.23.56,2.64,2.64,0,0,0-1.1,1.83c-.07,1,.62,2.14,2,3.34a.52.52,0,0,1,.06.74A.53.53,0,0,1,159.5,53.59Z" style="fill: #333"/>
      </g>
      <g>
        <path d="M198.12,108.27s-9.16,2.52-9.35-1,13.64-6.1,18.51-6.11l28.85-1.83V90.21l18-.47v14.07a11.64,11.64,0,0,1-11.64,11.64h-39a5.56,5.56,0,0,1-5.32-7.18Z" style="fill: #fff"/>
        <path d="M242.47,116h-39a6.11,6.11,0,0,1-6-7c-1.92.45-6.4,1.31-8.28,0a2.09,2.09,0,0,1-.88-1.63,2.36,2.36,0,0,1,.75-1.77c2.87-3,14.11-4.88,18.28-4.88l28.32-1.8V90.21a.52.52,0,0,1,.52-.52l18-.47a.51.51,0,0,1,.38.15.52.52,0,0,1,.16.37v14.07A12.18,12.18,0,0,1,242.47,116Zm-44.35-8.24a.52.52,0,0,1,.37.16.51.51,0,0,1,.13.52,5,5,0,0,0,4.82,6.5h39a11.13,11.13,0,0,0,11.12-11.11V90.28l-16.93.45v8.63a.53.53,0,0,1-.5.53l-28.84,1.83c-4.56,0-15.07,1.93-17.55,4.55a1.38,1.38,0,0,0-.47,1,1,1,0,0,0,.45.82c1.59,1.15,6.48.15,8.23-.33Z" style="fill: #333"/>
      </g>
      <g>
        <g>
          <g>
            <polygon points="164.31 78.94 189.31 110.91 140.46 110.91 115.47 78.94 164.31 78.94" style="fill: #fff"/>
            <path d="M189.31,111.44H140.46a.53.53,0,0,1-.42-.2l-25-32a.54.54,0,0,1,0-.56.51.51,0,0,1,.47-.29h48.85a.51.51,0,0,1,.41.2l25,32a.52.52,0,0,1,.06.55A.51.51,0,0,1,189.31,111.44Zm-48.59-1h47.51L164.06,79.46H116.55Z" style="fill: #333"/>
          </g>
          <g>
            <polygon points="223.94 110.91 224.07 115.41 140.35 115.41 140.35 110.91 223.94 110.91" style="fill: #fff"/>
            <path d="M224.07,115.94H140.35a.53.53,0,0,1-.53-.53v-4.5a.52.52,0,0,1,.53-.52h83.59a.51.51,0,0,1,.52.51l.13,4.5a.5.5,0,0,1-.15.38A.51.51,0,0,1,224.07,115.94Zm-83.2-1h82.66l-.1-3.45H140.87Z" style="fill: #333"/>
          </g>
        </g>
        <g>
          <path d="M153.7,95.63c1,2,.13,3.69-1.85,3.69a6.65,6.65,0,0,1-5.35-3.69c-1-2-.13-3.69,1.85-3.69A6.65,6.65,0,0,1,153.7,95.63Z" style="fill: #542ed1"/>
          <path d="M151.85,99.85a7.11,7.11,0,0,1-5.82-4,3.39,3.39,0,0,1-.07-3.28,2.71,2.71,0,0,1,2.39-1.17,7.13,7.13,0,0,1,5.83,4h0a3.39,3.39,0,0,1,.06,3.27A2.71,2.71,0,0,1,151.85,99.85Zm-3.5-7.38a1.67,1.67,0,0,0-1.5.67,2.41,2.41,0,0,0,.13,2.27,6.18,6.18,0,0,0,4.87,3.38,1.67,1.67,0,0,0,1.5-.67,2.41,2.41,0,0,0-.12-2.26h0A6.09,6.09,0,0,0,148.35,92.47Z" style="fill: #333"/>
        </g>
      </g>
    </g>
  </g>
  <circle cx="36.96" cy="40.15" r="5.55" style="fill: #333"/>
  <circle cx="36.96" cy="122.23" r="5.55" style="fill: #333"/>
  <circle cx="92.94" cy="40.15" r="5.55" style="fill: #333"/>
  <circle cx="92.94" cy="122.23" r="5.55" style="fill: #333"/>
</svg>
