<svg id="Layer_1" data-name="Layer 1" xmlns="http://www.w3.org/2000/svg" xmlns:xlink="http://www.w3.org/1999/xlink" viewBox="0 0 662.88 730.27">
  <defs>
    <linearGradient id="linear-gradient" x1="380.3" y1="1452.68" x2="-4.91" y2="1085.9" gradientTransform="translate(0 -846)" gradientUnits="userSpaceOnUse">
      <stop offset="0.01" stop-color="#4b4b4b"/>
      <stop offset="0.09" stop-color="#6a6a6a"/>
      <stop offset="0.22" stop-color="#969695"/>
      <stop offset="0.35" stop-color="#b9b9b8"/>
      <stop offset="0.47" stop-color="#d2d2d1"/>
      <stop offset="0.58" stop-color="#e1e1e0"/>
      <stop offset="0.67" stop-color="#e6e6e5"/>
      <stop offset="0.95" stop-color="#f2f2f2"/>
    </linearGradient>
    <clipPath id="clip-path">
      <path d="M489.88,417.94c-22.07,65.56-84.07,113-157.1,113C30.91,530.89,5,261.49,3,234.54V497.46a101.25,101.25,0,0,0,50,87l.32.32h0C53.64,584.77,422,701,489.88,417.94Z" style="fill: none"/>
    </clipPath>
    <linearGradient id="linear-gradient-2" x1="-29.13" y1="1427.53" x2="566.16" y2="1427.53" gradientTransform="translate(0 -846)" gradientUnits="userSpaceOnUse">
      <stop offset="0.01" stop-color="#4b4b4b"/>
      <stop offset="0.67" stop-color="#e6e6e5"/>
      <stop offset="1" stop-color="#f2f2f2"/>
    </linearGradient>
    <linearGradient id="linear-gradient-3" x1="299.01" y1="1364.77" x2="-75.74" y2="1007.95" xlink:href="#linear-gradient-2"/>
    <linearGradient id="linear-gradient-4" x1="22.71" y1="1326.52" x2="543.91" y2="888.7" gradientTransform="translate(0 -846)" gradientUnits="userSpaceOnUse">
      <stop offset="0.01" stop-color="#4b4b4b"/>
      <stop offset="0.02" stop-color="#525252"/>
      <stop offset="0.11" stop-color="#7f7f7e"/>
      <stop offset="0.19" stop-color="#a4a4a3"/>
      <stop offset="0.28" stop-color="#c1c1c0"/>
      <stop offset="0.37" stop-color="#d6d6d5"/>
      <stop offset="0.46" stop-color="#e2e2e1"/>
      <stop offset="0.54" stop-color="#e6e6e5"/>
      <stop offset="0.96" stop-color="#f2f2f2"/>
    </linearGradient>
    <linearGradient id="linear-gradient-5" x1="15.54" y1="1311.04" x2="651.31" y2="1311.04" gradientTransform="translate(0 -846)" gradientUnits="userSpaceOnUse">
      <stop offset="0.01" stop-color="#4b4b4b"/>
      <stop offset="0.12" stop-color="#7a7a79"/>
      <stop offset="0.24" stop-color="#a1a1a0"/>
      <stop offset="0.35" stop-color="#bfbfbe"/>
      <stop offset="0.46" stop-color="#d5d5d4"/>
      <stop offset="0.57" stop-color="#e2e2e1"/>
      <stop offset="0.67" stop-color="#e6e6e5"/>
      <stop offset="0.97" stop-color="#f2f2f2"/>
    </linearGradient>
    <clipPath id="clip-path-5">
      <path d="M341.54,199.81h0c87.32,4.87,157.1,77.26,157.1,165.54a165.29,165.29,0,0,1-8.44,52.59C422,701,53.64,584.77,53.64,584.77h0L282.79,716.88a100.63,100.63,0,0,0,100.3,0L612.57,584.45a100.07,100.07,0,0,0,50.31-87v-3.25C660.93,461.11,638.54,199.81,341.54,199.81Z" style="fill: none"/>
    </clipPath>
    <linearGradient id="linear-gradient-6" x1="327.59" y1="1248.03" x2="793.2" y2="1248.03" xlink:href="#linear-gradient-2"/>
    <linearGradient id="linear-gradient-7" x1="-5.11" y1="1327.5" x2="490.53" y2="1327.5" xlink:href="#linear-gradient-2"/>
    <linearGradient id="linear-gradient-8" x1="290.9" y1="943.8" x2="569.02" y2="1352.53" xlink:href="#linear-gradient-2"/>
    <clipPath id="clip-path-8">
      <path d="M612.25,145.93l-.33-.32v.32s-444.68-113.28-444.68,212h0c3.9-88,76.6-158.08,165.54-158.08a77.74,77.74,0,0,1,8.76.33v-.33c297.32,0,319.39,261.3,321,294.73V232.92A100.87,100.87,0,0,0,612.25,145.93Z" style="fill: none"/>
    </clipPath>
    <linearGradient id="linear-gradient-9" x1="133.81" y1="1048.74" x2="698.12" y2="1048.74" gradientTransform="translate(0 -846)" gradientUnits="userSpaceOnUse">
      <stop offset="0.01" stop-color="#4b4b4b"/>
      <stop offset="0.7" stop-color="#e6e6e5"/>
      <stop offset="1" stop-color="#f2f2f2"/>
    </linearGradient>
    <linearGradient id="linear-gradient-10" x1="371.47" y1="960.39" x2="682.9" y2="1418.06" xlink:href="#linear-gradient-2"/>
  </defs>
  <title>omnishare logo</title>
  <g>
    <g>
      <path d="M489.88,417.94c-22.07,65.56-84.07,113-157.1,113C30.91,530.89,5,261.49,3,234.54V497.46a101.25,101.25,0,0,0,50,87l.32.32h0C53.64,584.77,422,701,489.88,417.94Z" style="fill: url(#linear-gradient)"/>
      <g style="clip-path: url(#clip-path)">
        <path d="M490.2,418.26S467.81,543.55,278.25,568.87-29.13,458.51-29.13,458.51L-8.36,579.25,84.15,685.07l149.31,59.72,180.47-41.87,141.84-173,10.39-71.74-76-39.92" style="opacity: 0.189999997615814;isolation: isolate;fill: url(#linear-gradient-2)"/>
      </g>
      <g style="clip-path: url(#clip-path)">
        <path d="M357.45,494.54l-25.32,35.7S40,557.51,3.32,240.06h0Z" style="opacity: 0.639999985694885;isolation: isolate;fill: url(#linear-gradient-3)"/>
      </g>
    </g>
    <path d="M332.78,530.89c-91.53,0-165.54-74.33-165.54-165.54a58.19,58.19,0,0,1,.32-7.46h-.32c0-325.24,444.68-212,444.68-212v-.32L382.77,13.5a100.63,100.63,0,0,0-100.3,0L53.31,145.93A100.87,100.87,0,0,0,3,232.92v2C5,261.81,30.91,530.89,332.78,530.89Z" style="fill: url(#linear-gradient-4)"/>
    <g>
      <path d="M341.54,199.81h0c87.32,4.87,157.1,77.26,157.1,165.54a165.29,165.29,0,0,1-8.44,52.59C422,701,53.64,584.77,53.64,584.77h0L282.79,716.88a100.63,100.63,0,0,0,100.3,0L612.57,584.45a100.07,100.07,0,0,0,50.31-87v-3.25C660.93,461.11,638.54,199.81,341.54,199.81Z" style="fill: url(#linear-gradient-5)"/>
      <g style="clip-path: url(#clip-path-5)">
        <path d="M332.13,198.84s162.62,0,249.28,199.94c63.62,147-46.09,302.84-46.09,302.84l206.11-100,52.26-219.42-73-170.08-184-109.71-209,1,4.54,95.43" style="opacity: 0.219999998807907;isolation: isolate;fill: url(#linear-gradient-6)"/>
      </g>
      <g style="clip-path: url(#clip-path-5)">
        <path d="M481.44,351.07l9.09,67.19S475.6,560.1,318.82,600.35-5.11,563-5.11,563Z" style="opacity: 0.610000014305115;isolation: isolate;fill: url(#linear-gradient-7)"/>
      </g>
    </g>
    <g>
      <path d="M612.25,145.93l-.33-.32v.32s-444.68-113.28-444.68,212h0c3.9-88,76.6-158.08,165.54-158.08a77.74,77.74,0,0,1,8.76.33v-.33c297.32,0,319.39,261.3,321,294.73V232.92A100.87,100.87,0,0,0,612.25,145.93Z" style="fill: url(#linear-gradient-8)"/>
      <g style="clip-path: url(#clip-path-8)">
        <path d="M166.27,364.7s1.62-117.5,98.35-174.62c95.75-56.48,328.48-41.88,410.27,62.64,47.07,60,5.84-140.22,5.84-140.22L573.3,57.32,385.69,40.77,184.12,127.43l-37,80.5L133.81,305Z" style="opacity: 0.280000001192093;isolation: isolate;fill: url(#linear-gradient-9)"/>
      </g>
      <g style="clip-path: url(#clip-path-8)">
        <path d="M332.13,198.84s310.3-28.24,329.78,295.37c1,16.56,2,31.16,2.6,44.47,14.93,247.34-2.6-44.47-2.6-44.47L332.13,198.84" style="opacity: 0.439999997615814;isolation: isolate;fill: url(#linear-gradient-10)"/>
      </g>
    </g>
  </g>
</svg>
