<svg width="101" height="112" viewBox="0 0 101 112" fill="none" xmlns="http://www.w3.org/2000/svg">
<g opacity="0.5">
<path d="M32.76 43.4106L33.1 43.5406V43.4607L32.76 43.4106Z" fill="#C1C1C1"/>
<path d="M100.9 36.0107C100.89 32.2078 99.5492 28.5283 97.11 25.6107L97.96 25.8907L96.76 25.2007C95.667 23.9674 94.4004 22.8995 93 22.0307L58.58 2.16068C56.0954 0.744656 53.2849 0 50.4251 0C47.5652 0 44.7547 0.744656 42.27 2.16068L8.18 21.8607C5.70306 23.3035 3.64558 25.3677 2.21094 27.8494C0.776311 30.3311 0.0142187 33.1442 6.17027e-06 36.0107V75.3607C-0.00239723 78.1257 0.697352 80.8461 2.03364 83.2668C3.36992 85.6875 5.29899 87.7293 7.64002 89.2007L42.32 109.201C44.8047 110.617 47.6152 111.361 50.475 111.361C53.3349 111.361 56.1454 110.617 58.63 109.201L92.76 89.5007C95.2468 88.0708 97.3131 86.011 98.7509 83.5287C100.189 81.0465 100.947 78.2293 100.95 75.3607L100.9 36.0107ZM92.48 25.0107C94.2175 26.2722 95.6328 27.9258 96.6111 29.8371C97.5893 31.7484 98.1028 33.8636 98.11 36.0107V60.7707C96.9094 57.1411 95.2956 53.6615 93.3001 50.4007C89.6621 44.4598 84.5858 39.5315 78.54 36.0707C71.16 31.8707 62.14 29.7407 51.75 29.7407H50.45C43.742 29.7384 37.2927 32.3289 32.45 36.9707C31.6692 37.7289 30.9314 38.5301 30.24 39.3707L30.58 38.6707L29.78 38.2707L30.68 38.4607C30.79 38.2407 30.91 38.0207 31.06 37.7407L32.74 35.0607L32.01 34.5507L32.8601 34.9007L33.79 33.7007L34.27 33.0707L33.6 32.4807L34.39 32.9407L34.8001 32.4907L34.15 31.8807L34.93 32.3607L35.3001 31.9707L34.6701 31.3407L35.45 31.8307C35.62 31.6607 35.8 31.4807 36.07 31.2307L36.54 30.8007L35.94 30.1407L36.7 30.6607L37.12 30.3107L36.54 29.6207L37.28 30.1707L37.87 29.7007C47.28 22.3807 61.35 21.3207 71.49 21.7507L73.14 21.8307C78.9994 22.179 84.8233 22.978 90.56 24.2207C91.2506 24.3721 91.9037 24.6612 92.48 25.0707V25.0107ZM50.48 32.4607H51.72C55.2586 32.6568 58.706 33.6564 61.8005 35.3838C64.895 37.1111 67.5553 39.5207 69.5795 42.4298C71.6037 45.3388 72.9385 48.6708 73.4827 52.1727C74.0268 55.6747 73.766 59.2546 72.72 62.6407L72.59 63.0907C70.8273 68.3193 67.2646 72.7518 62.5374 75.5978C57.8102 78.4438 52.2258 79.5182 46.78 78.6294C41.3343 77.7406 36.3813 74.9464 32.8043 70.7451C29.2273 66.5437 27.2588 61.2085 27.25 55.6907V54.6407C27.513 48.6671 30.0732 43.0259 34.3962 38.8949C38.7191 34.7639 44.4706 32.4623 50.45 32.4707L50.48 32.4607ZM28.73 40.6007L29.22 40.6707C29.1934 40.7016 29.17 40.7351 29.15 40.7707L28.73 40.6007ZM2.82001 36.0007C2.83065 33.6218 3.4628 31.287 4.65381 29.2278C5.84483 27.1685 7.55339 25.4562 9.61005 24.2607L43.69 4.56067C45.7517 3.38766 48.083 2.7709 50.455 2.7709C52.8271 2.7709 55.1583 3.38766 57.22 4.56067L84.22 20.1507L77.1101 19.2707L75.77 19.1607L71.63 18.9007C65.4826 18.5942 59.3204 19.0104 53.27 20.1407C48.1612 21.072 43.2626 22.9183 38.81 25.5907C37.8911 26.1632 37.0032 26.7841 36.15 27.4507C28.35 33.5107 24.39 42.6407 24.39 54.5907V55.7007C24.3891 59.9701 25.4397 64.1741 27.4489 67.9413C29.458 71.7085 32.364 74.9229 35.91 77.3007L32.91 76.4807L31.8601 76.1407L31.64 76.0607L30.39 75.6107C22.0672 72.4699 15.0245 66.6515 10.37 59.0707C6.13258 52.1433 3.53955 44.3367 2.79005 36.2507L2.82001 36.0007ZM9.16004 86.8407C7.21915 85.6165 5.61985 83.9208 4.51124 81.9117C3.40263 79.9025 2.82079 77.6454 2.82001 75.3507V49.4907C6.70001 60.9907 15.66 75.5707 36.38 80.2407H36.5C37.38 80.4407 38.29 80.6107 39.19 80.7707L50.48 81.6907C56.0079 81.7014 61.3953 79.9499 65.8601 76.6907C66.3301 76.3407 66.79 75.9807 67.23 75.6207C64.6414 79.4278 61.2221 82.5975 57.23 84.8907C39.23 95.3007 12.63 87.8907 9.72004 87.0707C9.52004 87.0707 9.27001 86.9007 9.13001 86.8507L9.16004 86.8407ZM91.4 87.0807L57.27 106.791C55.209 107.966 52.8774 108.583 50.505 108.583C48.1326 108.583 45.8011 107.966 43.74 106.791L17.74 91.7907C21.1079 92.3996 24.5062 92.8269 27.92 93.0707C40.2901 93.8807 50.64 91.9507 58.6 87.3507C67.07 82.4407 72.67 74.5507 75.22 63.9407L75.35 63.5007C76.1269 60.9804 76.5213 58.3579 76.52 55.7207C76.5221 49.0421 73.9423 42.6212 69.32 37.8007C67.8266 36.2383 66.1475 34.8647 64.32 33.7107C69.8851 34.7945 75.1783 36.977 79.89 40.1307C84.3629 43.2322 88.1343 47.2387 90.96 51.8907C94.5716 57.9381 96.9125 64.6582 97.84 71.6407C98 72.8407 98.09 73.8407 98.14 74.5907V75.3807C98.1327 77.7511 97.5036 80.0782 96.3157 82.1295C95.1277 84.1808 93.4224 85.8846 91.37 87.0707L91.4 87.0807Z" fill="#C1C1C1"/>
</g>
</svg>
