<svg width="220" height="222" viewBox="0 0 20 22" fill="none" xmlns="http://www.w3.org/2000/svg">
<path d="M19.6 7.07996C19.5966 6.29288 19.3171 5.53196 18.8101 4.92995L18.74 4.84995C18.5128 4.59388 18.2501 4.37164 17.96 4.18996L11.48 0.449951C10.9673 0.155147 10.3864 0 9.79504 0C9.20369 0 8.62262 0.155147 8.10999 0.449951L1.69006 4.15996C1.17931 4.4583 0.754915 4.88436 0.458618 5.3963C0.162321 5.90825 0.00424753 6.48847 0 7.07996V14.49C0.000141854 15.0614 0.145199 15.6234 0.421509 16.1236C0.697819 16.6237 1.09632 17.0456 1.57996 17.3499L8.12 21.1199C8.63263 21.4148 9.2137 21.5699 9.80505 21.5699C10.3964 21.5699 10.9774 21.4148 11.49 21.1199L17.92 17.41C18.431 17.1126 18.8549 16.6865 19.1497 16.1742C19.4444 15.6618 19.5997 15.0811 19.6 14.49V7.07996ZM8.68005 20.1499L5.07996 18.08H5.54004C7.58721 18.3017 9.65414 17.912 11.48 16.9599C12.3165 16.4671 13.04 15.8037 13.6034 15.0129C14.1668 14.2221 14.5575 13.3216 14.75 12.3699V12.3C14.9067 11.7984 14.9843 11.2754 14.98 10.75C14.9827 9.46347 14.5049 8.22235 13.64 7.26996C15.1081 7.81504 16.3486 8.84059 17.16 10.1799C17.8179 11.2858 18.2432 12.5141 18.41 13.7899C18.41 14.0199 18.41 14.1999 18.47 14.3199V14.45C18.4797 14.8543 18.3799 15.2537 18.1809 15.6058C17.982 15.958 17.6913 16.2497 17.34 16.45L10.91 20.16C10.5692 20.3513 10.1846 20.4509 9.7937 20.4492C9.40285 20.4474 9.01916 20.3443 8.68005 20.1499ZM18.48 7.07996V10.27C18.36 10.05 18.24 9.83995 18.12 9.63995C17.4123 8.47197 16.4174 7.5046 15.23 6.82996C13.6376 5.97141 11.8485 5.54395 10.04 5.58995H9.79004C9.08556 5.59205 8.38854 5.73484 7.73999 6.00995C9.44999 4.77995 11.93 4.59995 13.74 4.67995H14.05C15.1369 4.74489 16.2169 4.89537 17.28 5.12996C17.3697 5.1501 17.4546 5.18746 17.53 5.23996C17.823 5.44933 18.0619 5.72538 18.2271 6.04532C18.3922 6.36525 18.4789 6.7199 18.48 7.07996ZM10.02 6.70995C11.0636 6.76858 12.0453 7.22357 12.7646 7.98192C13.484 8.74027 13.8866 9.74472 13.89 10.7899C13.8913 11.2033 13.8305 11.6145 13.71 12.0099V12.09C13.4208 13.0357 12.7988 13.8447 11.9591 14.3671C11.1194 14.8895 10.1189 15.09 9.1427 14.9314C8.16653 14.7727 7.2809 14.2658 6.64978 13.5043C6.01867 12.7429 5.68473 11.7786 5.70996 10.7899V10.5999C5.75642 9.55028 6.20708 8.55926 6.96753 7.83423C7.72797 7.1092 8.73936 6.70634 9.79004 6.70995H10.02ZM14.59 3.60995H13.8C12.6218 3.54847 11.4403 3.62566 10.28 3.83995C9.28428 4.0275 8.3295 4.38976 7.45996 4.90996C7.27996 5.01996 7.10005 5.14996 6.93005 5.26996C6.14661 5.91368 5.52756 6.73459 5.12415 7.66487C4.72073 8.59515 4.54448 9.60808 4.60999 10.6199V10.83C4.60808 12.0527 5.04041 13.2363 5.82996 14.17C4.44932 13.5815 3.28571 12.5786 2.5 11.3C1.72879 10.0403 1.25669 8.62059 1.12 7.14995C1.11448 6.7464 1.21614 6.34862 1.41467 5.99724C1.6132 5.64586 1.90149 5.35347 2.25 5.14995L8.67004 1.44995C9.01242 1.25345 9.40029 1.15005 9.79504 1.15005C10.1898 1.15005 10.5777 1.25345 10.92 1.44995L14.76 3.65996L14.59 3.60995ZM1.12 11.09C1.69619 12.2695 2.53775 13.2996 3.57874 14.0994C4.61972 14.8992 5.83182 15.4471 7.12 15.7L7.64001 15.81L9.80005 15.9799C10.3359 15.9815 10.8688 15.9006 11.38 15.74L10.92 16.0399C7.68004 17.9199 2.81997 16.6 2.21997 16.42H2.16003C1.84935 16.2082 1.59555 15.9231 1.42114 15.59C1.24674 15.2569 1.1571 14.8859 1.16003 14.5099L1.12 11.09Z" fill="#7650e3"/>
</svg>
