<svg xmlns="http://www.w3.org/2000/svg" xml:space="preserve" viewBox="0 0 220 220"><path fill="none" d="M63.1 72.1c3.8 3 17.9 20.9 21.4 25.2 5.9-7.3 12.2-14.4 18.1-21.7 11.9-14.7 10-12.6 21.8 1.3l31.3 36.5h6.1V53.9H144c-21.4 0-24.4-2.2-24.4-23.9V12.5H18.5V120c6.1-7.3 35.1-41.6 35.1-41.6s6-9.1 9.5-6.3"/><path fill="none" d="M136.1 46.1h19.5c-2.2-2.5-4.6-4.7-6.9-7l-11.3-11c-2.3-2.3-7.4-7.7-9.9-9.4v14.4c0 7.7-.9 13 8.6 13m-17.5 35.8c-1.8-2.1-3.8-4.6-6-6.3L96.3 95c-2.3 2.8-4.8 5.6-7 8.6 2.9 3.2 5.7 6.6 8.5 9.9h47.6c-2.2-3-4.8-5.7-7.2-8.6z"/><path fill="none" d="M158.9 151.5c-1.4-1.4-2.3-3-2.9-4.9-.1-1-.3-2-.4-3-.1-1.5.3-3 1-4.3.5-1.4 1.2-2.6 2.3-3.6.8-.9 1.7-1.5 2.8-2V121H94.3S71.4 93.5 61.2 81.5c-3.4 3.7-6.6 7.7-9.9 11.6 0 0-25.9 29.9-32.9 38 0 19.5 1.1 33.6 24.1 33.6h84.1c.4-.9 1-1.6 1.8-2.3 1-1.1 2.2-1.9 3.6-2.3 1.3-.7 2.8-1 4.3-1 2 0 3.9.5 5.6 1.5.8.6 1.5 1.2 2.3 1.7.3.3.5.6.8.9.5-1.4 1.2-2.6 2.3-3.6 1-1.1 2.2-1.9 3.6-2.3.1-.1.3-.1.4-.2.4-.5.8-1.1 1.3-1.5 1-1.1 2.2-1.9 3.6-2.3 1.2-.6 2.4-.9 3.8-1-.3-.2-.7-.5-1.1-.8"/><path fill="#7650e3" d="M10.8 12.6q.15 0 0 0M144 54h17.7v59.5h7.6v7.6h-7.6v12.7c.3-.1.5-.2.8-.3 1.3-.7 2.8-1 4.3-1 1 0 1.9.1 2.8.4V56.8c-.1-11.1-5.1-13.1-12.6-20.3l-20.5-19.9C124.9 5.5 127.7 5 110.2 5.1H94.1C83 5.1 54.9 5 33.3 5 20.9 5 10.8 15.1 10.8 27.5v102.1c0 11.3-.8 28.4 7.8 37.1 7.1 7.2 16.7 6.3 25.9 6.3h81c-.1-.9-.2-1.8-.4-2.6-.1-1.5.3-3 1-4.3.1-.5.3-.9.5-1.3H42.5c-23.1 0-24.1-14.2-24.1-33.6-.9 1.1-1.6 1.8-1.7 2l.7-11.9c.2-.2.5-.6.9-1.1v-91c0-9.1 7.4-16.4 16.4-16.4h84.7v17.5c.3 21.5 3.2 23.7 24.6 23.7m-16.5-20.9V18.7c2.5 1.6 7.5 7.1 9.9 9.4l11.3 11c2.3 2.3 4.8 4.5 6.9 7h-19.5c-9.5 0-8.6-5.3-8.6-13"/><path fill="#7650e3" d="m155.6 113.4-31.3-36.5c-11.9-13.9-9.9-16-21.8-1.3-5.9 7.3-12.1 14.4-18 21.7C81 93 66.9 75.1 63.1 72.1c-3.5-2.8-9.5 6.3-9.5 6.3s-29 34.3-35.1 41.6c-.4.5-.8.9-.9 1.1l-.7 11.9c.1-.2.7-.9 1.7-2 6.9-8.1 32.9-38 32.9-38 3.2-3.9 6.4-7.8 9.9-11.6 10.2 12 33.1 39.5 33.1 39.5h75v-7.6h-7.6zm-57.7 0c-2.8-3.3-5.6-6.6-8.5-9.9 2.2-3 4.6-5.8 7-8.6l16.2-19.4c2.2 1.7 4.2 4.2 6 6.3l19.7 23c2.4 2.8 4.9 5.6 7.2 8.6zM54.4 59.6c19.5-3.4 12.9-28.9-2.3-26.9-19.1 1.9-15.3 28.8 2.3 26.9m-2.3-19.3c8-.6 9.3 9.7 1.6 11.6-7.8.4-9.6-9.5-1.6-11.6"/><path fill="#7650e3" stroke="#7650e3" stroke-miterlimit="10" stroke-width="1.179" d="M165.9 215.1c-5.9 0-11.5-1.1-16.9-3.4q-7.8-3.3-13.8-9.3c-6-6-7.1-8.6-9.3-13.8-2.3-5.4-3.4-11-3.4-16.9s1.1-11.5 3.4-16.9q3.3-7.8 9.3-13.8c6-6 8.6-7.1 13.8-9.3 5.4-2.3 11-3.4 16.9-3.4s11.5 1.1 16.9 3.4q7.8 3.3 13.8 9.3c6 6 7.1 8.6 9.3 13.8 2.3 5.4 3.4 11 3.4 16.9s-1.1 11.5-3.4 16.9q-3.3 7.8-9.3 13.8c-6 6-8.6 7.1-13.8 9.3-5.4 2.3-11.1 3.4-16.9 3.4zm0-79.6c-20 0-36.3 16.3-36.3 36.3s16.3 36.3 36.3 36.3 36.3-16.3 36.3-36.3-16.3-36.3-36.3-36.3z"/><path fill="#7650e3" stroke="#7650e3" stroke-miterlimit="10" stroke-width="1.179" d="M164 192.9c-2 0-3.5-1.6-3.5-3.5v-34.7c0-2 1.6-3.5 3.5-3.5 2 0 3.5 1.6 3.5 3.5v34.7c.1 1.9-1.5 3.5-3.5 3.5z"/><path fill="#7650e3" stroke="#7650e3" stroke-miterlimit="10" stroke-width="1.179" d="M181.4 175.5h-34.7c-2 0-3.5-1.6-3.5-3.5 0-2 1.6-3.5 3.5-3.5h34.7c2 0 3.5 1.6 3.5 3.5s-1.6 3.5-3.5 3.5z"/></svg>