<svg xmlns="http://www.w3.org/2000/svg" xml:space="preserve" viewBox="0 0 208 208"><g fill="#403fb4"><path d="M88.7 203.1c-16.4 0-32.9.1-49.3 0-21.8-.1-34.5-12.5-34.5-34.2-.1-33.5-.1-67.1 0-100.6 0-12.2 3.6-23.2 15.1-29.1 5.5-2.8 12.2-4.5 18.4-4.7 17.5-.6 35.1-.4 52.6-.2 9.5.1 13.9 4.1 13.7 11.7-.1 4.9-2.5 8.1-7 9.3-3 .8-6.1 1.2-9.2 1.2-16.7.1-33.3 0-50 .1-8.7 0-11.2 2.5-11.2 11.1q-.15 51 0 102c0 8.6 2.5 11.3 11 11.3 34 .1 68 .1 101.9 0 8.6 0 11.2-2.6 11.2-11.1.1-17.5-.3-35.1.3-52.6.1-4 2-8.9 4.8-11.6 6.1-5.8 16.8-1 17 8.1.5 20.9 1 41.8-.7 62.6-1.4 17.4-13.8 26.8-31.4 27-17.6-.1-35.1-.3-52.7-.3"/><path d="M180 43.8c-2.3 2.2-4.1 3.8-5.8 5.5-24.8 24.8-49.7 49.6-74.5 74.3-3 3-5.9 6.1-9.3 8.5-4.8 3.4-9.9 2.5-13.9-1.6-3.8-3.9-3.4-8.6-.8-12.9 1.6-2.6 3.9-4.8 6.1-7 25.6-25.6 51.1-51.2 76.7-76.9 1.7-1.7 3.3-3.5 6.4-6.7-4 0-6.5.1-9 0-8.4-.3-16.8-.3-25.2-1.1-5.5-.5-8-4.9-8-9.9s2.3-9.1 7.8-10.1c2.6-.5 5.2-1 7.9-1 16.4-.1 32.9-.1 49.3 0C199 4.9 203.1 9 203.2 20c.1 16.7 0 33.3 0 50 0 .9 0 1.8-.1 2.7-.7 8-4.6 12.5-11 12.6s-10.6-4.4-11.2-12.3c-.2-3.1-.1-6.2-.1-9.3 0-5.8 0-11.6-.1-17.3 0-.5-.2-1-.7-2.6"/></g></svg>