<svg xmlns="http://www.w3.org/2000/svg" xml:space="preserve" viewBox="0 0 220 220"><path fill="#7650e3" d="M15.3 161h193v9h-193z"/><path fill="#7650e3" d="M188 210.3H32c-11.7 0-21.2-9.5-21.2-21.2V30.9c0-11.7 9.5-21.2 21.2-21.2h156c11.7 0 21.2 9.5 21.2 21.2v158.2c0 11.7-9.5 21.2-21.2 21.2M32 18.7c-6.7 0-12.2 5.5-12.2 12.2v158.2c0 6.7 5.5 12.2 12.2 12.2h156c6.7 0 12.2-5.5 12.2-12.2V30.9c0-6.7-5.5-12.2-12.2-12.2z"/><path fill="#7650e3" d="M87.8 127.4c-1.7 0-3.4-.5-5-1.4-3.1-1.8-5-5-5-8.6V66c0-3.6 1.9-6.8 5-8.6s6.8-1.8 9.9 0l44.5 25.7c3.1 1.8 5 5 5 8.6s-1.9 6.8-5 8.6L92.7 126c-1.6.9-3.3 1.4-4.9 1.4m0-62.3c-.2 0-.4.1-.5.1-.2.1-.5.4-.5.8v51.4c0 .5.2.7.5.8.2.1.6.2.9 0l44.5-25.7c.4-.2.5-.6.5-.8s-.1-.6-.5-.8L88.2 65.2c-.1-.1-.3-.1-.4-.1"/></svg>