<svg xmlns="http://www.w3.org/2000/svg" xml:space="preserve" viewBox="0 0 218 218"><path fill="#7650e3" d="m196.7 129.3-48-53.2c-2.6-2.8-6.2-4.4-10-4.4h-.2c-3.9.1-7.6 1.8-10.1 4.8l-26.3 31.3-20-23.2c-2.9-3.4-7.2-5.4-11.7-5.4s-8.8 1.8-11.8 5.2l-46.9 52v13.7l53.7-59.5c1.2-1.4 2.9-2.1 4.8-2.1h.1c1.9 0 3.6.8 4.8 2.2l41.3 48h91.2v-9.2zm-76.1 0-12.4-14.5 27.3-32.4c.8-.9 1.9-1.5 3.2-1.5s2.4.5 3.2 1.4l42.4 47zM11.7 161.4h198.4v9.2H11.7zm54.7-88.3c10.5 0 19-8.5 19-19s-8.5-19-19-19-19 8.5-19 19c-.1 10.5 8.5 19 19 19m0-28.8c5.4 0 9.8 4.4 9.8 9.8s-4.4 9.8-9.8 9.8-9.8-4.4-9.8-9.8 4.4-9.8 9.8-9.8"/><path fill="none" stroke="#7650e3" stroke-miterlimit="10" stroke-width="9.241" d="M189.3 207.5H28.9c-9.5 0-17.2-7.7-17.2-17.2V27.7c0-9.5 7.7-17.2 17.2-17.2h160.4c9.5 0 17.2 7.7 17.2 17.2v162.6c0 9.5-7.7 17.2-17.2 17.2z"/></svg>