<svg xmlns="http://www.w3.org/2000/svg" xml:space="preserve" viewBox="0 0 210 210"><g fill="#7650e3"><path d="M183.1 8.2H26.9c-11.6 0-21.1 9.5-21.1 21.1v118.5c0 11.6 9.5 21.1 21.1 21.1h79.4l35 30.1c2.2 1.9 4.9 2.9 7.8 2.9 1.7 0 3.4-.4 5-1.1 4.3-2 7-6.1 7-10.9v-21h22.1c11.6 0 21.1-9.5 21.1-21.1V29.3c-.1-11.7-9.5-21.1-21.2-21.1m-32.9 155.3v26.4c0 .2 0 .8-.7 1.1s-1.1-.1-1.3-.2l-36.5-31.4c-1-.8-2.2-1.3-3.5-1.3H26.9c-5.7 0-10.4-4.6-10.4-10.4V29.3c0-5.7 4.6-10.4 10.4-10.4h156.2c5.7 0 10.4 4.6 10.4 10.4v118.5c0 5.7-4.6 10.4-10.4 10.4h-27.5c-3-.1-5.4 2.3-5.4 5.3"/><path d="M57.5 67.7C46 67.7 36.7 77 36.7 88.5c0 11.4 9.3 20.8 20.8 20.8s20.8-9.3 20.8-20.8c-.1-11.4-9.4-20.8-20.8-20.8m0 30.8c-5.5 0-10-4.5-10-10s4.5-10 10-10 10 4.5 10 10-4.5 10-10 10m47.7-30.8c-11.4 0-20.8 9.3-20.8 20.8 0 11.4 9.3 20.8 20.8 20.8S126 100 126 88.5c0-11.4-9.3-20.8-20.8-20.8m0 30.8c-5.5 0-10-4.5-10-10s4.5-10 10-10 10 4.5 10 10-4.4 10-10 10m68.6-10c0-11.4-9.3-20.8-20.8-20.8s-20.8 9.3-20.8 20.8c0 11.4 9.3 20.8 20.8 20.8s20.8-9.4 20.8-20.8m-20.8 10c-5.5 0-10-4.5-10-10s4.5-10 10-10 10 4.5 10 10-4.4 10-10 10"/></g></svg>