<svg xmlns="http://www.w3.org/2000/svg" viewBox="0 0 281.51 237.27">
  <title>UI Screens</title>
  <g id="Layer_2" data-name="Layer 2">
    <g>
      <g>
        <g>
          <g>
            <g>
              <rect x="130.86" y="38.41" width="140.23" height="151.35" rx="3.7" style="fill: #dedffb"/>
              <g>
                <rect x="137.55" y="45.09" width="126.86" height="137.98" rx="2.73" style="fill: #fff;stroke: #542ed1;stroke-miterlimit: 10;stroke-width: 0.25px"/>
                <path d="M261.68,183.35H140.27a3,3,0,0,1-3-3V47.82a3,3,0,0,1,3-3H261.68a3,3,0,0,1,3,3V180.34A3,3,0,0,1,261.68,183.35Zm-121.41-138a2.44,2.44,0,0,0-2.44,2.44V180.34a2.45,2.45,0,0,0,2.44,2.45H261.68a2.45,2.45,0,0,0,2.44-2.45V47.82a2.44,2.44,0,0,0-2.44-2.44Z" style="fill: #fff;stroke: #542ed1;stroke-miterlimit: 10;stroke-width: 0.25px"/>
              </g>
            </g>
            <polygon points="233.24 38.27 270.55 76.75 271.87 71.21 276.81 72.07 276.43 65.4 281.51 66.53 243.07 26.23 243.31 31.49 238.7 30.93 238.37 37.34 233.24 38.27" style="fill: #542ed1"/>
            <polygon points="168.16 38.27 130.85 76.75 129.53 71.21 124.58 72.07 124.97 65.4 119.89 66.53 158.33 26.23 158.08 31.49 162.7 30.93 163.03 37.34 168.16 38.27" style="fill: #542ed1"/>
          </g>
          <g>
            <g>
              <path d="M211.16,148.08c0,5-4.55,9-10.16,9s-10.22-4-10.22-9Z" style="fill: #542ed1"/>
              <path d="M201,157.39c-5.79,0-10.5-4.18-10.5-9.31a.29.29,0,0,1,.28-.29h20.38a.29.29,0,0,1,.29.29C211.45,153.21,206.76,157.39,201,157.39Zm-9.93-9c.17,4.69,4.56,8.46,9.93,8.46s9.7-3.77,9.87-8.46Z" style="fill: #542ed1"/>
            </g>
            <path d="M210.27,143.24h-3.39a.28.28,0,1,1,0-.56h3.39a.28.28,0,1,1,0,.56Zm-6.79,0h-3.4a.28.28,0,0,1,0-.56h3.4a.28.28,0,0,1,0,.56Zm-6.8,0h-3.39a.28.28,0,1,1,0-.56h3.39a.28.28,0,1,1,0,.56Zm-6.78-.15h-.06a6.32,6.32,0,0,1-3.08-1.68.28.28,0,1,1,.4-.4,5.81,5.81,0,0,0,2.8,1.53.28.28,0,0,1-.06.56Zm23.66-.56a.26.26,0,0,1-.25-.15.28.28,0,0,1,.11-.38,5.78,5.78,0,0,0,2.31-2.21.27.27,0,0,1,.38-.11.29.29,0,0,1,.11.39,6.3,6.3,0,0,1-2.53,2.43A.31.31,0,0,1,213.56,142.53Zm-28.22-4a.27.27,0,0,1-.27-.22,6.12,6.12,0,0,1-.14-1.28v-2.17a.29.29,0,0,1,.57,0v2.17a5.64,5.64,0,0,0,.12,1.16.28.28,0,0,1-.22.33Zm31.4-1.6a.29.29,0,0,1-.29-.28v-3.4a.29.29,0,0,1,.57,0v3.4A.29.29,0,0,1,216.74,137Zm-31.53-5.19a.28.28,0,0,1-.28-.28v-3.4a.29.29,0,0,1,.57,0v3.4A.28.28,0,0,1,185.21,131.76Zm31.53-1.61a.28.28,0,0,1-.29-.28v-3.4a.29.29,0,0,1,.57,0v3.4A.28.28,0,0,1,216.74,130.15Zm.23-6.78a.28.28,0,0,1-.28-.32,20.65,20.65,0,0,1,.8-3.35.28.28,0,0,1,.36-.18.3.3,0,0,1,.18.36,19.49,19.49,0,0,0-.79,3.25A.28.28,0,0,1,217,123.37Zm2-6.46a.27.27,0,0,1-.12-.38,22.71,22.71,0,0,1,1.8-2.92.28.28,0,0,1,.4-.06.28.28,0,0,1,.06.39,22.78,22.78,0,0,0-1.76,2.85A.27.27,0,0,1,219,116.91Zm3.9-5.53a.28.28,0,0,1,0-.4c1-1,1.36-1.26,2.46-2.35a.28.28,0,1,1,.4.4c-1.09,1.09-1.47,1.34-2.45,2.35A.28.28,0,0,1,222.85,111.38Zm4.76-4.84a.29.29,0,0,1,0-.4,33.15,33.15,0,0,0,2-2.7.27.27,0,0,1,.39-.08.29.29,0,0,1,.08.39c-.63.94-1.32,1.87-2,2.75A.29.29,0,0,1,227.61,106.54Zm-56.94-4.81a32.33,32.33,0,0,1-1.53-3.06.27.27,0,0,1,.14-.37.28.28,0,0,1,.37.14,30.29,30.29,0,0,0,1.52,3,.3.3,0,0,1-.11.39A.29.29,0,0,1,170.67,101.73Zm60.74-.81a.28.28,0,0,1-.12-.38,29.15,29.15,0,0,0,1.41-3.06.29.29,0,0,1,.37-.15.27.27,0,0,1,.16.36,30.16,30.16,0,0,1-1.44,3.11A.28.28,0,0,1,231.41,100.92Zm-63.48-5.45a31.77,31.77,0,0,1-.87-3.32.28.28,0,0,1,.22-.33.26.26,0,0,1,.33.22,32.34,32.34,0,0,0,.86,3.25.3.3,0,0,1-.19.36A.28.28,0,0,1,167.93,95.47Zm66-.82a.29.29,0,0,1-.19-.35c.3-1.08.55-2.18.75-3.29a.27.27,0,0,1,.32-.23.28.28,0,0,1,.23.33,31.65,31.65,0,0,1-.76,3.34A.28.28,0,0,1,234,94.65ZM166.82,89a.28.28,0,0,1-.28-.25c-.18-1.81-.16-3.1-.17-3.42a.29.29,0,1,1,.57,0c0,.59,0,1.59.16,3.36a.28.28,0,0,1-.25.31Zm68.4-1h0a.27.27,0,0,1-.26-.3c.07-1.1.09-2.24.05-3.36a.3.3,0,0,1,.27-.3.29.29,0,0,1,.3.28,32.19,32.19,0,0,1-.06,3.42A.28.28,0,0,1,235.22,88Zm-68.38-5.73h0a.28.28,0,0,1-.25-.31c.12-1.14.3-2.27.53-3.38a.29.29,0,0,1,.56.11,33.46,33.46,0,0,0-.53,3.33A.28.28,0,0,1,166.84,82.24ZM234.7,81a30.49,30.49,0,0,0-.63-3.3.28.28,0,1,1,.55-.14c.27,1.1.49,2.23.65,3.36a.29.29,0,0,1-.57.08ZM168.16,75.6a.28.28,0,0,1-.18-.36A33.43,33.43,0,0,1,169.2,72a.29.29,0,0,1,.38-.14.27.27,0,0,1,.14.37,32.21,32.21,0,0,0-1.2,3.14A.3.3,0,0,1,168.16,75.6Zm64.94-1.17a32.49,32.49,0,0,0-1.31-3.11.29.29,0,0,1,.52-.24,33.28,33.28,0,0,1,1.32,3.15.29.29,0,0,1-.17.37A.28.28,0,0,1,233.1,74.43Zm-62.24-5.06a.28.28,0,0,1-.11-.38c.57-1,1.19-2,1.85-2.88A.29.29,0,0,1,173,66a.29.29,0,0,1,.06.4,33.25,33.25,0,0,0-1.82,2.83A.28.28,0,0,1,170.86,69.37Zm59.32-1a30.3,30.3,0,0,0-1.91-2.77.29.29,0,0,1,.06-.4.27.27,0,0,1,.39,0,32.85,32.85,0,0,1,1.94,2.82.28.28,0,0,1-.09.39A.29.29,0,0,1,230.18,68.37Zm-55.42-4.54a.28.28,0,0,1,0-.4A32.49,32.49,0,0,1,177.13,61a.28.28,0,1,1,.38.41,33.41,33.41,0,0,0-2.35,2.41A.29.29,0,0,1,174.76,63.83ZM226.1,63a33.48,33.48,0,0,0-2.43-2.34.29.29,0,0,1,.38-.43c.85.75,1.68,1.55,2.46,2.38a.28.28,0,0,1,0,.4A.29.29,0,0,1,226.1,63Zm-46.41-3.86a.29.29,0,0,1,.06-.4c.9-.68,1.85-1.33,2.82-1.93a.28.28,0,0,1,.39.1.27.27,0,0,1-.09.38,33.34,33.34,0,0,0-2.78,1.91A.29.29,0,0,1,179.69,59.17ZM221,58.6a32.45,32.45,0,0,0-2.84-1.81.29.29,0,0,1-.1-.39.28.28,0,0,1,.39-.1c1,.56,2,1.18,2.88,1.84a.29.29,0,0,1,.07.4A.3.3,0,0,1,221,58.6Zm-35.58-3a.27.27,0,0,1,.13-.37c1-.5,2.08-1,3.14-1.35a.29.29,0,0,1,.37.17.28.28,0,0,1-.17.36c-1,.39-2.09.84-3.1,1.33A.28.28,0,0,1,185.45,55.57Zm29.74-.31c-1-.46-2.07-.87-3.13-1.23a.28.28,0,0,1-.18-.36.28.28,0,0,1,.36-.17c1.07.36,2.15.78,3.18,1.24a.29.29,0,0,1,.15.38A.3.3,0,0,1,215.19,55.26Zm-23.4-2.09a.28.28,0,0,1,.2-.34c1.1-.29,2.22-.53,3.35-.71a.28.28,0,0,1,.32.24.28.28,0,0,1-.23.32c-1.11.18-2.22.41-3.3.69A.27.27,0,0,1,191.79,53.17Zm17.09,0c-.2,0-1.12-.31-3.38-.6a.28.28,0,1,1,.07-.56,32.13,32.13,0,0,1,3.37.6.27.27,0,0,1,.21.34A.28.28,0,0,1,208.88,53.13Zm-10.12-.82a.29.29,0,0,1-.29-.27.29.29,0,0,1,.27-.3c1.12-.07,2.29-.09,3.42-.05a.29.29,0,0,1,0,.57C201.3,52.26,199.31,52.29,198.76,52.31Z" style="fill: #333"/>
            <path d="M197.82,133.05h0a.27.27,0,0,1-.27-.29l.17-12.32c.12-8.19.25-17.34-2.89-25.46a21.32,21.32,0,0,1-8.2,0c-1.59-.29-5.35-1.31-6-4.36a4.72,4.72,0,0,1,3.25-5.2,7,7,0,0,1,6.19,1.24,13.76,13.76,0,0,1,3.92,5q.66,1.31,1.2,2.64A15.55,15.55,0,0,0,200.61,92a13,13,0,0,0,2.08-1.84A13.61,13.61,0,0,1,198,81.68a7.13,7.13,0,0,1,.39-4,4,4,0,0,1,3.19-2.45c2.23-.15,3.9,2,4.5,4A12.09,12.09,0,0,1,203.5,90a12.09,12.09,0,0,0,3.63,2,16.3,16.3,0,0,1,4.14-8,8.31,8.31,0,0,1,4.52-2.44,5.1,5.1,0,0,1,4.77,1.8,5.17,5.17,0,0,1,.07,5.61,8.76,8.76,0,0,1-4.51,3.47,13.59,13.59,0,0,1-8.57.3,52.2,52.2,0,0,0-.74,8.27l-1.13,31.67a.27.27,0,0,1-.29.27.29.29,0,0,1-.27-.29l0-.55,1.1-31.12a51,51,0,0,1,.77-8.42,13.44,13.44,0,0,1-3.89-2.09,13.09,13.09,0,0,1-2.18,2,16.16,16.16,0,0,1-5.56,2.45c3.15,8.2,3,17.38,2.9,25.59l-.18,12.32A.28.28,0,0,1,197.82,133.05ZM185.65,85.73A5.07,5.07,0,0,0,184,86a4.18,4.18,0,0,0-2.87,4.54c.58,2.72,4.08,3.65,5.56,3.92a20.88,20.88,0,0,0,7.88,0c-.35-.85-.73-1.68-1.15-2.5a13.17,13.17,0,0,0-3.75-4.82A7,7,0,0,0,185.65,85.73Zm22,6.43a13.22,13.22,0,0,0,8.25-.27,8.15,8.15,0,0,0,4.22-3.23,4.59,4.59,0,0,0,0-5,4.5,4.5,0,0,0-4.23-1.58,7.79,7.79,0,0,0-4.21,2.29,15.74,15.74,0,0,0-4,7.73Zm-5.85-16.37h-.18a3.41,3.41,0,0,0-2.72,2.11,6.68,6.68,0,0,0-.34,3.69,13.24,13.24,0,0,0,4.48,8.07,11.46,11.46,0,0,0,2.49-10.25C205,77.59,203.58,75.79,201.82,75.79Z" style="fill: #333"/>
            <g>
              <path d="M217.87,126.06a1.08,1.08,0,0,1,1.08,1.09v16a6.83,6.83,0,0,1-6.92,6.76H189.92a6.83,6.83,0,0,1-6.92-6.76v-16a1.09,1.09,0,0,1,1.09-1.09Z" style="fill: #fff"/>
              <path d="M212,150.22H189.92a7.14,7.14,0,0,1-7.21-7v-16a1.37,1.37,0,0,1,1.38-1.37h33.78a1.37,1.37,0,0,1,1.37,1.37v16A7.14,7.14,0,0,1,212,150.22Zm-27.94-23.88a.81.81,0,0,0-.81.81v16a6.57,6.57,0,0,0,6.64,6.48H212a6.57,6.57,0,0,0,6.64-6.48v-16a.8.8,0,0,0-.8-.81Z" style="fill: #333"/>
            </g>
            <g>
              <rect x="181.13" y="130.63" width="39.99" height="4.65" rx="2.33" style="fill: #542ed1"/>
              <path d="M218.79,135.57H183.46a2.61,2.61,0,0,1,0-5.22h35.33a2.61,2.61,0,0,1,0,5.22Zm-35.33-4.65a2,2,0,0,0,0,4.09h35.33a2,2,0,1,0,0-4.09Z" style="fill: #542ed1"/>
            </g>
            <g>
              <path d="M181.13,140.93h0a2.33,2.33,0,0,0,2.33,2.33h35.33a2.33,2.33,0,0,0,2.33-2.33h0a2.33,2.33,0,0,0-2.33-2.33H183.46A2.33,2.33,0,0,0,181.13,140.93Z" style="fill: #542ed1"/>
              <path d="M218.79,143.54H183.46a2.61,2.61,0,0,1,0-5.22h35.33a2.61,2.61,0,0,1,0,5.22Zm-35.33-4.65a2,2,0,0,0,0,4.08h35.33a2,2,0,1,0,0-4.08Z" style="fill: #542ed1"/>
            </g>
          </g>
        </g>
        <g>
          <path d="M148.34,122l-10.77,4.18s1-8,4-11.23S150.05,114.41,148.34,122Z" style="fill: #fff"/>
          <path d="M137.57,126.48a.3.3,0,0,1-.18-.06.26.26,0,0,1-.1-.26c0-.33,1.09-8.13,4.07-11.38a4,4,0,0,1,4.86-1c1.85,1,3.44,3.65,2.39,8.3a.27.27,0,0,1-.17.2l-10.77,4.18Zm4.21-11.32c-2.45,2.67-3.58,8.84-3.86,10.6l10.17-4c.91-4.25-.49-6.67-2.13-7.53A3.43,3.43,0,0,0,141.78,115.16Zm6.56,6.86Z" style="fill: #333"/>
        </g>
        <g>
          <path d="M167.06,109.27,124.4,135.2h0l-4.81,2.92c-1.3.74-3.09,0-4-1.59a3.8,3.8,0,0,1-.52-1.74,2.64,2.64,0,0,1,1.22-2.5l4.83-2.93,42.66-25.92Z" style="fill: #333"/>
          <path d="M167.06,109.27,124.4,135.2h0c-1.29.71-3.07,0-4-1.6a4,4,0,0,1-.52-1.74,2.63,2.63,0,0,1,1.22-2.5l42.66-25.92Z" style="fill: #542ed1"/>
          <polygon points="167.06 109.28 163.77 103.45 171.16 103.11 167.06 109.28" style="fill: #dedffb"/>
          <polygon points="169.42 105.73 171.16 103.11 168.03 103.25 169.42 105.73" style="fill: #333"/>
        </g>
        <g>
          <g>
            <path d="M27.92,171l-.86,30.89H15.3A10.27,10.27,0,0,1,5.08,190.54l2-19.56Z" style="fill: #fff"/>
            <path d="M27.06,202.16H15.3A10.56,10.56,0,0,1,4.8,190.51l2-19.56a.28.28,0,0,1,.28-.26H27.92a.25.25,0,0,1,.2.09.23.23,0,0,1,.08.2l-.86,30.9A.29.29,0,0,1,27.06,202.16ZM7.37,171.26l-2,19.31a10,10,0,0,0,9.94,11H26.78l.85-30.33Z" style="fill: #333"/>
          </g>
          <g>
            <path d="M149.62,145.29,121.5,180.47a9.72,9.72,0,0,1-13.71,1.47l-17.53-16.2,2.48,46.11H24.09l2.06-37.48H5.31l8.05-46.87A12.46,12.46,0,0,1,25.23,120l35,.24L81.34,120a12.48,12.48,0,0,1,10.26,4.78l24.84,30.48,18.88-20,2.25-8,10-6s2.81-13,6.39-12.83c5.49.19,2.63,11.7,2.63,11.7,3.08.87.49,4.87.49,4.87,3.32.44,1.14,4.52,1.14,4.52C163.53,132.27,149.62,145.29,149.62,145.29Z" style="fill: #fff"/>
            <path d="M92.74,212.13H24.09a.28.28,0,0,1-.28-.3l2.05-37.17H5.31a.29.29,0,0,1-.22-.11.3.3,0,0,1-.06-.23l8.05-46.87a12.73,12.73,0,0,1,12.16-7.71l34.94.24,21.15-.31a12.81,12.81,0,0,1,10.5,4.88l24.62,30.24,18.62-19.69,2.23-8a.28.28,0,0,1,.12-.16l9.85-6c.73-3.31,3.28-13,6.65-12.94,4.53.16,4,7.38,3,11.8a2.1,2.1,0,0,1,1.31,1.22c.47,1.25-.31,2.91-.71,3.63a2.08,2.08,0,0,1,1.43,1.06c.61,1.19-.07,2.92-.37,3.56a2.41,2.41,0,0,1,1.12,1.77c.6,4.54-9.23,13.84-9.84,14.41l-28.1,35.17a10,10,0,0,1-14.11,1.51l-17-15.73L93,211.83A.29.29,0,0,1,92.74,212.13Zm-68.35-.57H92.44L90,165.76a.26.26,0,0,1,.16-.27.27.27,0,0,1,.31,0L108,181.73a9.44,9.44,0,0,0,13.3-1.44l28.11-35.18,0,0c.1-.1,10.24-9.63,9.68-13.94a1.89,1.89,0,0,0-1.06-1.48.28.28,0,0,1-.12-.38s1.1-2.09.49-3.29a1.68,1.68,0,0,0-1.41-.82.3.3,0,0,1-.22-.17.26.26,0,0,1,0-.27s1.36-2.14.86-3.48a1.64,1.64,0,0,0-1.19-1,.28.28,0,0,1-.2-.34c.94-4,1.7-11.21-2.37-11.35-2.86-.12-5.5,9.8-6.11,12.61a.28.28,0,0,1-.12.18l-9.86,6-2.21,7.94a.35.35,0,0,1-.07.12l-18.89,20a.27.27,0,0,1-.42,0L91.38,124.91a12.31,12.31,0,0,0-10-4.68l-21.16.31-35-.24a12.14,12.14,0,0,0-11.61,7.31l-8,46.48h20.5a.27.27,0,0,1,.21.09.3.3,0,0,1,.08.21Z" style="fill: #333"/>
          </g>
        </g>
        <g>
          <g>
            <path d="M81,96c-.23.28-1.47,0-1.47,0l.08,3.82A7.42,7.42,0,0,1,72,107.4l-6.06-.13L66.13,120H42.05l.37-15.59s21.25,6.12,23.21-10.27c2.05-17.09,13.13-18.1,13.13-18.1l0,0,.4,11.86S82.25,94.39,81,96Z" style="fill: #fff"/>
            <path d="M66.14,120.29H42.05a.29.29,0,0,1-.21-.09.28.28,0,0,1-.08-.2l.38-15.58a.27.27,0,0,1,.11-.22.28.28,0,0,1,.25,0c.11,0,11.22,3.15,17.91-1.29,2.8-1.85,4.46-4.8,4.93-8.74,2-16.4,12.35-18.21,13.32-18.34h0a.28.28,0,0,1,.41.24l.41,11.8c.41.89,3,6.69,1.68,8.35-.24.3-.88.26-1.4.17l.07,3.47A7.7,7.7,0,0,1,72,107.68l-5.76-.12L66.42,120a.28.28,0,0,1-.08.2A.28.28,0,0,1,66.14,120.29Zm-23.8-.57H65.85l-.22-12.45a.25.25,0,0,1,.08-.21.29.29,0,0,1,.21-.08l6.06.14a7.14,7.14,0,0,0,7.29-7.29L79.19,96a.28.28,0,0,1,.11-.22.26.26,0,0,1,.24-.06,3.23,3.23,0,0,0,1.2.09c1-1.23-1-6-1.79-7.8a.23.23,0,0,1,0-.11l-.39-11.52c-1.68.3-10.8,2.63-12.62,17.81-.5,4.11-2.24,7.19-5.19,9.15-6.3,4.18-16,2-18,1.45ZM80.74,95.8Z" style="fill: #333"/>
          </g>
          <path d="M79.12,75.84,78.8,76l0,0s-11.08,1-13.13,18.1c-2,16.39-23.3,10.37-23.3,10.37-22.9-33.39,1.24-41,1.24-41,10.75-14.6,18.6-6.73,25.84-6.81s7.82,7.16,7.82,7.16,6.24.6,6.64,4.87C84.21,72.38,80.34,75.08,79.12,75.84Z" style="fill: #333"/>
          <path d="M69,94.73c-2,.71-3.63,2.51-4.93,5.08l1.42-6.42,2.56.43Z" style="fill: #333"/>
          <g>
            <path d="M68.83,94.54a4.88,4.88,0,0,1-6.34-2.71C60.84,87.48,66,83.46,70,86.07" style="fill: #fff"/>
            <path d="M67,95.16a5.1,5.1,0,0,1-4.8-3.23c-1.74-4.59,3.69-8.86,7.94-6.1a.29.29,0,0,1-.31.48c-3.77-2.46-8.65,1.33-7.1,5.42a4.6,4.6,0,0,0,6,2.54.29.29,0,0,1,.37.17.28.28,0,0,1-.17.36A5.38,5.38,0,0,1,67,95.16Z" style="fill: #333"/>
          </g>
        </g>
        <g>
          <path d="M69.63,123.3c0,.65-32.18.8-32.19.15l.7-4.44a3.29,3.29,0,0,1,3.32-2.73l24.06-.13a3.37,3.37,0,0,1,3.37,2.71Z" style="fill: #542ed1"/>
          <path d="M37.38,123.75c-.22-.08-.22-.18-.23-.29l.71-4.49a3.58,3.58,0,0,1,3.6-3l24.05-.13a3.65,3.65,0,0,1,3.66,3c.65,3.88.74,4.37.74,4.49s0,.17-.17.25C68.13,124.28,39.05,124.37,37.38,123.75Zm.37-.47c2.58.51,29,.38,31.56-.16l-.7-4.22a3.08,3.08,0,0,0-3.1-2.47l-24.05.13a3,3,0,0,0-3,2.5Z" style="fill: #542ed1"/>
        </g>
        <g>
          <path d="M66.26,91.55a1.72,1.72,0,1,1,1.41-3.14" style="fill: #fff"/>
          <path d="M66.15,91.81a2,2,0,1,1,1.64-3.65.28.28,0,0,1,.14.37.27.27,0,0,1-.37.14,1.44,1.44,0,1,0-1.18,2.62.3.3,0,0,1,.14.38A.28.28,0,0,1,66.15,91.81Z" style="fill: #333"/>
        </g>
        <g>
          <line x1="26.15" y1="174.37" x2="27.01" y2="159.02" style="fill: #fff"/>
          <path d="M26.15,174.66h0a.29.29,0,0,1-.27-.3L26.73,159a.28.28,0,0,1,.3-.27.3.3,0,0,1,.27.3l-.86,15.36A.29.29,0,0,1,26.15,174.66Z" style="fill: #333"/>
        </g>
        <g>
          <line x1="90.26" y1="165.74" x2="89.34" y2="155.13" style="fill: #fff"/>
          <path d="M90.26,166a.29.29,0,0,1-.29-.25l-.91-10.62a.28.28,0,0,1,.26-.3.27.27,0,0,1,.3.25l.92,10.62a.28.28,0,0,1-.26.3Z" style="fill: #333"/>
        </g>
        <g>
          <line x1="158.17" y1="129.41" x2="155.77" y2="131.2" style="fill: #fff"/>
          <path d="M155.54,131.37a.29.29,0,0,1,.06-.4l2.4-1.79a.3.3,0,0,1,.4.06.29.29,0,0,1-.06.4l-2.4,1.78A.29.29,0,0,1,155.54,131.37Z" style="fill: #333"/>
        </g>
        <g>
          <line x1="157.03" y1="124.89" x2="154.82" y2="126.06" style="fill: #fff"/>
          <path d="M154.57,126.19a.28.28,0,0,1,.12-.38l2.21-1.17a.28.28,0,0,1,.38.11.28.28,0,0,1-.11.39L155,126.31A.29.29,0,0,1,154.57,126.19Z" style="fill: #333"/>
        </g>
        <g>
          <g>
            <path d="M152.64,111.77l-.18,1.08a.25.25,0,0,0,.2.28l2.5.41a.25.25,0,0,0,.28-.2l.18-1.08a1.5,1.5,0,0,0-1.24-1.73h0A1.52,1.52,0,0,0,152.64,111.77Z" style="fill: #fff"/>
            <path d="M155.11,113.82l-2.5-.41a.53.53,0,0,1-.43-.61l.18-1.08a1.79,1.79,0,0,1,3.54.58l-.18,1.09A.53.53,0,0,1,155.11,113.82Zm-2.19-2h0l-.18,1.09,2.46.36.14-1.05a1.23,1.23,0,0,0-2.42-.4Zm-.28,0h0Z" style="fill: #333"/>
          </g>
          <g>
            <line x1="155.15" y1="116.01" x2="152.17" y2="115.52" style="fill: #fff"/>
            <path d="M155.11,116.29l-3-.49a.28.28,0,1,1,.09-.56l3,.49a.28.28,0,0,1-.09.56Z" style="fill: #333"/>
          </g>
          <g>
            <line x1="154.05" y1="117.2" x2="152.6" y2="116.97" style="fill: #fff"/>
            <path d="M154,117.48l-1.45-.24a.27.27,0,0,1-.23-.32.28.28,0,0,1,.33-.23l1.45.24a.28.28,0,1,1-.1.55Z" style="fill: #333"/>
          </g>
        </g>
        <g>
          <line x1="156.54" y1="120.02" x2="154.29" y2="121.33" style="fill: #fff"/>
          <path d="M154,121.47a.28.28,0,0,1,.11-.39l2.25-1.31a.29.29,0,0,1,.39.11.28.28,0,0,1-.1.38l-2.26,1.31A.28.28,0,0,1,154,121.47Z" style="fill: #333"/>
        </g>
        <g>
          <line x1="111.92" y1="149.67" x2="95.92" y2="170.98" style="fill: #fff"/>
          <path d="M95.92,171.26a.27.27,0,0,1-.17-.06.28.28,0,0,1-.06-.39l16-21.31a.29.29,0,0,1,.4-.06.3.3,0,0,1,.06.4l-16,21.31A.3.3,0,0,1,95.92,171.26Z" style="fill: #333"/>
        </g>
        <path d="M26.41,170.07H6.1a.29.29,0,0,1-.29-.28.28.28,0,0,1,.29-.28H26.41a.27.27,0,0,1,.28.28A.28.28,0,0,1,26.41,170.07Z" style="fill: #333"/>
        <g>
          <line x1="108.81" y1="145.85" x2="91.96" y2="167.32" style="fill: #fff"/>
          <path d="M92,167.6a.27.27,0,0,1-.17-.06.28.28,0,0,1-.05-.4l16.85-21.46a.28.28,0,0,1,.4-.05.3.3,0,0,1,.05.4L92.18,167.49A.28.28,0,0,1,92,167.6Z" style="fill: #333"/>
        </g>
        <path d="M43.55,63.89l-4.32-1.2a.29.29,0,0,1-.2-.35.27.27,0,0,1,.35-.19l3.66,1-3.23-5.67a.28.28,0,0,1,.11-.38.29.29,0,0,1,.39.1l3.56,6.27A.28.28,0,0,1,43.55,63.89Z" style="fill: #333"/>
      </g>
      <g>
        <path d="M65.9,107.26,61.78,107A9.3,9.3,0,0,0,66,110l0-2.73" style="fill: #333"/>
        <path d="M66,110.27a.16.16,0,0,1-.1,0,9.55,9.55,0,0,1-4.29-3.06.27.27,0,0,1,0-.3.28.28,0,0,1,.27-.16l4.12.25a.28.28,0,0,1,.27.28l0,2.73a.27.27,0,0,1-.12.23A.33.33,0,0,1,66,110.27Zm-3.52-2.93a8.91,8.91,0,0,0,3.23,2.23l0-2Z" style="fill: #333"/>
      </g>
      <path d="M120.15,159.49a.29.29,0,0,1-.21-.09l-3.71-4a.27.27,0,0,1,0-.4.28.28,0,0,1,.4,0l3.71,4a.29.29,0,0,1-.21.48Z" style="fill: #333"/>
      <path d="M64.66,37a3,3,0,1,1-3-3A3,3,0,0,1,64.66,37Z" style="fill: #dedffb"/>
      <path d="M182.46,207.94c-2.83-.75-1.68-5.1-4.1-5.75s-3.59,3.71-6.42,3-1.68-5.11-4.1-5.75-3.6,3.7-6.42,2.95-1.7-5.11-4.11-5.75-3.6,3.7-6.43,3A.29.29,0,0,1,151,199c2.42.64,3.59-3.7,6.43-2.95s1.7,5.11,4.1,5.75,3.61-3.7,6.43-3,1.68,5.11,4.1,5.75,3.59-3.7,6.41-2.95,1.69,5.1,4.1,5.75a.28.28,0,0,1,.2.34A.27.27,0,0,1,182.46,207.94Z" style="fill: #542ed1"/>
      <g>
        <g>
          <path d="M265.14,204a3.52,3.52,0,1,1,1.45-4.76A3.52,3.52,0,0,1,265.14,204Z" style="fill: none;stroke: #542ed1;stroke-miterlimit: 10;stroke-width: 0.25px"/>
          <path d="M260.13,202.63a3.8,3.8,0,1,1,5.14,1.57h0A3.79,3.79,0,0,1,260.13,202.63ZM262,198a3.23,3.23,0,0,0,3,5.71h0A3.24,3.24,0,0,0,262,198Z" style="fill: none;stroke: #542ed1;stroke-miterlimit: 10;stroke-width: 0.25px"/>
        </g>
        <g>
          <path d="M256.56,207a2.17,2.17,0,1,1,.89-2.93A2.15,2.15,0,0,1,256.56,207Z" style="fill: none;stroke: #542ed1;stroke-miterlimit: 10;stroke-width: 0.25px"/>
          <path d="M253.38,206.23a2.45,2.45,0,1,1,3.32,1h0A2.44,2.44,0,0,1,253.38,206.23Zm3.18.76h0Zm-1.91-3.57a1.88,1.88,0,1,0,1.78,3.32h0a1.88,1.88,0,1,0-1.78-3.32Z" style="fill: none;stroke: #542ed1;stroke-miterlimit: 10;stroke-width: 0.25px"/>
        </g>
      </g>
      <path d="M201.77,28.12a3,3,0,1,1-3-3A3,3,0,0,1,201.77,28.12Z" style="fill: #dedffb"/>
      <path d="M259.57,172.76H240.68a.28.28,0,1,1,0-.56h18.89a.28.28,0,1,1,0,.56Z" style="fill: #333"/>
      <path d="M259.57,167.85H231.94a.29.29,0,0,1,0-.57h27.63a.29.29,0,1,1,0,.57Z" style="fill: #333"/>
      <path d="M259.57,162.93H231.94a.28.28,0,0,1,0-.56h27.63a.28.28,0,1,1,0,.56Z" style="fill: #333"/>
      <path d="M165.86,172.76H147a.28.28,0,0,1,0-.56h18.9a.28.28,0,1,1,0,.56Z" style="fill: #333"/>
      <path d="M174.59,167.85H147a.29.29,0,0,1,0-.57h27.63a.29.29,0,0,1,0,.57Z" style="fill: #333"/>
      <path d="M174.59,162.93H147a.28.28,0,0,1,0-.56h27.63a.28.28,0,0,1,0,.56Z" style="fill: #333"/>
      <path d="M18.23,106.93h0l-5-.62a.29.29,0,0,1-.23-.17l-2-4.66a.28.28,0,0,1,0-.28l3.05-4a.29.29,0,0,1,.26-.11l5,.61a.3.3,0,0,1,.22.17l2,4.66a.28.28,0,0,1,0,.28l-3,4A.28.28,0,0,1,18.23,106.93Zm-4.83-1.16,4.71.58L21,102.56,19.1,98.21l-4.7-.57-2.85,3.77Z" style="fill: #542ed1"/>
      <path d="M4.35,135.91a2.18,2.18,0,1,1-2.18-2.17A2.19,2.19,0,0,1,4.35,135.91Z" style="fill: #dedffb"/>
      <path d="M276.21,190H124.6a.28.28,0,1,1,0-.56H276.21a.28.28,0,0,1,0,.56Z" style="fill: #542ed1"/>
    </g>
  </g>
</svg>
