<svg xmlns="http://www.w3.org/2000/svg" xml:space="preserve" viewBox="0 0 216 216"><g fill="#7650e3"><path d="M103.1 206.6c-20.6 0-41.2.1-61.7 0-19.1-.1-32-12-32.2-31.2-.5-42-.4-84.1 0-126.1C9.3 30 21.7 18 41 17.6c19.4-.4 38.8-.2 58.2 0 9.5.1 15 4.6 14.8 11.2-.2 6.7-5.6 10.7-15.2 10.7-18.3.1-36.5 0-54.8.1-11.2 0-12.8 1.5-12.8 12.4q-.15 59.55 0 119.1c0 11.6 1.6 13.3 12.9 13.3h119.1c10.9 0 12.6-1.8 12.7-12.7.1-13.1.1-49.4.1-67.4 0-5.8 4.6-10.6 10.4-10.9 6.2-.3 11.5 4.6 11.5 10.9.1 20 .1 60.7-1.3 78-1.2 15.3-13.8 24.1-29.2 24.2-21.5.2-42.9.1-64.3.1"/><path d="M161.2 13.5C176 5.1 195 9.8 203.3 24.7c.1.1.1.2.2.3 5.6 10.3 4.7 20.7-1.6 30.4-2.5 3.8-5.8 7.2-9.1 10.5-24.9 25-49.6 50.3-75.1 74.7-5.7 5.5-13.7 9-21.3 11.9-8.3 3.2-17.2 4.8-26 6.7-9.6 2.1-16.2-4.2-14.1-13.8 2.5-11.6 5.4-23.1 8.7-34.4 1-3.4 3.4-6.8 5.9-9.4 27.7-28 55.4-56 83.7-83.4 1.9-1.8 4.2-3.3 6.6-4.7M81.9 133.3c9.3-.4 15.7-2.6 23.6-10.5 23.7-23.7 47.4-47.6 71.1-71.3 1.8-1.8 11.6-12.1 5.7-18-4.1-4.1-8.6-3.2-12.9.4-1.3 1.1-2.5 2.4-3.8 3.6-24.8 24.8-49.8 49.3-74.1 74.5-4.9 5.2-10.2 20.4-9.6 21.3"/></g></svg>