<svg id="Layer_1" data-name="Layer 1" xmlns="http://www.w3.org/2000/svg" xmlns:xlink="http://www.w3.org/1999/xlink" viewBox="0 0 195.19 42.17"><defs><style>.cls-1{fill:none;}.cls-2{fill:#221f1f;}.cls-3{fill:url(#linear-gradient);}.cls-4{clip-path:url(#clip-path);}.cls-5{opacity:0.4;}.cls-6{opacity:0.19;fill:url(#linear-gradient-2);}.cls-11,.cls-12,.cls-13,.cls-16,.cls-17,.cls-6,.cls-7{isolation:isolate;}.cls-7{opacity:0.64;fill:url(#linear-gradient-3);}.cls-8{fill:url(#linear-gradient-4);}.cls-9{fill:url(#linear-gradient-5);}.cls-10{clip-path:url(#clip-path-5);}.cls-11{opacity:0.22;fill:url(#linear-gradient-6);}.cls-13{opacity:0.61;fill:url(#linear-gradient-7);}.cls-14{fill:url(#linear-gradient-8);}.cls-15{clip-path:url(#clip-path-9);}.cls-16{opacity:0.28;fill:url(#linear-gradient-9);}.cls-17{opacity:0.44;fill:url(#linear-gradient-10);}</style><linearGradient id="linear-gradient" x1="19.91" y1="879.24" x2="-0.44" y2="859.86" gradientTransform="translate(0 -846)" gradientUnits="userSpaceOnUse"><stop offset="0.01" stop-color="#5c28d9"/><stop offset="0.67" stop-color="#8279d9"/><stop offset="1" stop-color="#929cd9"/></linearGradient><clipPath id="clip-path"><path class="cls-1" d="M28.12,24.13a9.58,9.58,0,0,1-9.07,6.52C1.61,30.65.11,15.09,0,13.54V28.72a5.86,5.86,0,0,0,2.89,5h0S24.2,40.48,28.12,24.13Z"/></clipPath><linearGradient id="linear-gradient-2" x1="-1.86" y1="879.58" x2="32.52" y2="879.58" xlink:href="#linear-gradient"/><linearGradient id="linear-gradient-3" x1="17.1" y1="875.95" x2="-4.55" y2="855.35" xlink:href="#linear-gradient"/><linearGradient id="linear-gradient-4" x1="3.71" y1="871.59" x2="30.63" y2="848.97" xlink:href="#linear-gradient"/><linearGradient id="linear-gradient-5" x1="2.92" y1="872.85" x2="38.11" y2="872.85" xlink:href="#linear-gradient"/><clipPath id="clip-path-5"><path class="cls-1" d="M19.55,11.53h0a9.62,9.62,0,0,1,8.59,12.6C24.2,40.48,2.92,33.76,2.92,33.76h0l13.24,7.63a5.76,5.76,0,0,0,5.79,0L35.2,33.75a5.79,5.79,0,0,0,2.91-5v-.19C38,26.62,36.7,11.53,19.55,11.53Z"/></clipPath><linearGradient id="linear-gradient-6" x1="18.75" y1="869.21" x2="45.64" y2="869.21" xlink:href="#linear-gradient"/><linearGradient id="linear-gradient-7" x1="-0.47" y1="873.8" x2="28.16" y2="873.8" xlink:href="#linear-gradient"/><linearGradient id="linear-gradient-8" x1="16.63" y1="851.64" x2="32.69" y2="875.25" xlink:href="#linear-gradient"/><clipPath id="clip-path-9"><path class="cls-1" d="M35.18,8.42v0S9.49,1.88,9.49,20.66h0a9.56,9.56,0,0,1,9.56-9.13,4.26,4.26,0,0,1,.5,0v0c17.17,0,18.45,15.09,18.54,17V13.44A5.82,5.82,0,0,0,35.18,8.42Z"/></clipPath><linearGradient id="linear-gradient-9" x1="7.55" y1="857.7" x2="40.14" y2="857.7" xlink:href="#linear-gradient"/><linearGradient id="linear-gradient-10" x1="21.28" y1="852.6" x2="39.26" y2="879.03" xlink:href="#linear-gradient"/></defs><title>logo-with-text</title><path class="cls-2" d="M55.67,13.11a7.86,7.86,0,0,1,8.18,8.09,7.86,7.86,0,0,1-8.18,8.09,7.85,7.85,0,0,1-8.15-8.09A7.85,7.85,0,0,1,55.67,13.11Zm0,3c-2.88,0-4.73,2.2-4.73,5.13s1.85,5.13,4.73,5.13,4.76-2.22,4.76-5.13S58.56,16.07,55.67,16.07Z"/><path class="cls-2" d="M81.67,29V17.76L77.26,29H75.81L71.4,17.76V29H68.07V13.37h4.67l3.79,9.75,3.8-9.75H85V29Z"/><path class="cls-2" d="M100.77,29l-7.46-10.5V29H90V13.37h3.42l7.24,10.13V13.37H104V29Z"/><path class="cls-2" d="M109,29V13.37h3.32V29Z"/><path class="cls-2" d="M117.73,25.33a6.66,6.66,0,0,0,4.93,2.22c2.79,0,3.68-1.5,3.68-2.69,0-1.88-1.9-2.39-4-3-2.51-.65-5.3-1.36-5.3-4.43,0-2.57,2.3-4.33,5.37-4.33A7.35,7.35,0,0,1,128,15.32l-1.17,1.43a6,6,0,0,0-4.53-1.88c-1.87,0-3.21,1-3.21,2.49s1.81,2,3.8,2.58c2.56.67,5.46,1.47,5.46,4.75,0,2.28-1.55,4.6-5.76,4.6a7.72,7.72,0,0,1-6-2.49Z"/><path class="cls-2" d="M144.22,29V21.83h-9.14V29h-2V13.37h2V20.1h9.14V13.37h1.94V29Z"/><path class="cls-2" d="M162.92,29l-1.38-3.47h-7.92L152.23,29h-2.15l6.28-15.64h2.41L165.08,29Zm-5.34-13.9-3.4,8.69H161Z"/><path class="cls-2" d="M178,29l-4-6.22h-3.11V29H169V13.37h6.28a4.56,4.56,0,0,1,4.9,4.71,4.32,4.32,0,0,1-4,4.55L180.33,29Zm-3-13.9h-4.1v6H175a3,3,0,1,0,0-6Z"/><path class="cls-2" d="M185.11,29V13.37h10.25v1.74h-8.3v5h8.13v1.73h-8.13v5.39h8.3V29Z"/><path class="cls-3" d="M28.12,24.13a9.58,9.58,0,0,1-9.07,6.52C1.61,30.65.11,15.09,0,13.54V28.72a5.86,5.86,0,0,0,2.89,5h0S24.2,40.48,28.12,24.13Z"/><g class="cls-4"><path class="cls-6" d="M28.14,24.15s-1.3,7.23-12.24,8.7A21.1,21.1,0,0,1-1.86,26.47l1.2,7,5.35,6.11L13.31,43l10.42-2.42,8.19-10,.6-4.15-4.38-2.3"/></g><g class="cls-4"><path class="cls-7" d="M20.47,28.55,19,30.62S2.14,32.19,0,13.86H0Z"/></g><path class="cls-8" d="M19.05,30.65a9.56,9.56,0,0,1-9.56-9.56c0-.15,0-.28,0-.43h0C9.49,1.88,35.17,8.42,35.17,8.42v0L21.93.77a5.81,5.81,0,0,0-5.79,0L2.91,8.42a5.82,5.82,0,0,0-2.91,5v.12C.11,15.11,1.61,30.65,19.05,30.65Z"/><path class="cls-9" d="M19.55,11.53h0a9.62,9.62,0,0,1,8.59,12.6C24.2,40.48,2.92,33.76,2.92,33.76h0l13.24,7.63a5.76,5.76,0,0,0,5.79,0L35.2,33.75a5.79,5.79,0,0,0,2.91-5v-.19C38,26.62,36.7,11.53,19.55,11.53Z"/><g class="cls-10"><path class="cls-11" d="M19,11.48S28.4,11.48,33.4,23c3.68,8.5-2.66,17.49-2.66,17.49l11.91-5.77,3-12.67-4.21-9.82L30.82,5.91,18.75,6,19,11.48"/></g><g class="cls-10"><g class="cls-5"><image class="cls-12" width="225" height="256" transform="translate(11.92 -1.96) scale(0.19)" xlink:href="C:%5CUsers%5CHP%5CDesktop%5C310D0A66.png"/></g></g><g class="cls-10"><path class="cls-13" d="M27.63,20.27l.53,3.88a12.89,12.89,0,0,1-9.92,10.51C9.19,37-.47,32.51-.47,32.51Z"/></g><path class="cls-14" d="M35.18,8.42v0S9.49,1.88,9.49,20.66h0a9.56,9.56,0,0,1,9.56-9.13,4.26,4.26,0,0,1,.5,0v0c17.17,0,18.45,15.09,18.54,17V13.44A5.82,5.82,0,0,0,35.18,8.42Z"/><g class="cls-15"><path class="cls-16" d="M9.43,21.06S9.52,14.27,15.11,11s19-2.42,23.69,3.62c2.72,3.47.34-8.1.34-8.1L32.94,3.3,22.1,2.35l-11.64,5L8.32,12l-.77,5.61Z"/></g><g class="cls-15"><path class="cls-17" d="M19,11.48s17.92-1.63,19,17.05c.06,1,.12,1.8.15,2.57.86,14.29-.15-2.57-.15-2.57l-19-17"/></g></svg>