<svg id="Layer_1" data-name="Layer 1" xmlns="http://www.w3.org/2000/svg" viewBox="0 0 1089.48 119.14">
  <title>omnishare logo</title>
  <g>
    <path d="M60.17-.17c34.93,0,60.35,24.9,60.35,59.65S95.1,119.14,60.17,119.14C25.42,119.14,0,94.24,0,59.48S25.42-.17,60.17-.17Zm0,21.78c-21.26,0-34.92,16.26-34.92,37.87,0,21.44,13.66,37.87,34.92,37.87s35.1-16.43,35.1-37.87C95.27,37.87,81.44,21.61,60.17,21.61Z" style="fill: #fff"/>
    <path d="M251.93,117.06v-83l-32.51,83H208.7l-32.51-83v83H151.64V1.73h34.41l28,71.93,28-71.93h34.59V117.06Z" style="fill: #fff"/>
    <path d="M392.85,117.06l-55-77.46v77.46H313.31V1.73h25.24L392,76.43V1.73h24.56V117.06Z" style="fill: #fff"/>
    <path d="M453.19,117.06V1.73h24.55V117.06Z" style="fill: #fff"/>
    <path d="M518,89.91a48.74,48.74,0,0,0,36.32,16.43c20.57,0,27.14-11.07,27.14-19.88,0-13.84-14-17.64-29.22-21.79-18.5-4.84-39.08-10-39.08-32.68,0-19,17-32,39.6-32,17.64,0,31.3,5.88,41,16.08l-8.64,10.55c-8.65-9.51-20.75-13.83-33.38-13.83-13.83,0-23.69,7.43-23.69,18.32,0,11.59,13.32,15.05,28,19,18.84,5,40.28,10.89,40.28,35.1,0,16.77-11.41,33.89-42.53,33.89-20.06,0-34.76-7.61-44.27-18.33Z" style="fill: #fff"/>
    <path d="M713.41,117.06V64.15H646v52.91H631.63V1.73H646V51.35h67.43V1.73h14.35V117.06Z" style="fill: #fff"/>
    <path d="M851.39,117.06l-10.2-25.59H782.74l-10.2,25.59H756.63L803,1.73h17.82L867.3,117.06ZM812,14.52,786.89,78.68h50Z" style="fill: #fff"/>
    <path d="M962.91,117.06,933.52,71.24h-23v45.82H896.17V1.73h46.34c21.09,0,36.14,13.49,36.14,34.75,0,20.75-14.18,32.17-29.92,33.55l31.13,47ZM940.78,14.52H910.52v44.1h30.26c13.66,0,23-9.17,23-22.14S954.44,14.52,940.78,14.52Z" style="fill: #fff"/>
    <path d="M1015.13,117.06V1.73h75.56V14.52h-61.21V51.7h60V64.5h-60v39.77h61.21v12.79Z" style="fill: #fff"/>
  </g>
</svg>
