<svg width="196" height="43" viewBox="0 0 196 43" fill="none" xmlns="http://www.w3.org/2000/svg">
<path d="M28.1301 24.1026C27.4874 25.9998 26.2674 27.6485 24.641 28.8176C23.0145 29.9868 21.0631 30.6179 19.0601 30.6226C1.62006 30.6226 0.120059 15.0626 0.0600586 13.5126V28.7026C0.0680158 29.7149 0.338472 30.7077 0.845032 31.5841C1.35159 32.4605 2.07693 33.1905 2.95007 33.7026C2.95007 33.7026 24.2001 40.4526 28.1301 24.1026Z" fill="url(#paint0_linear_62_17)"/>
<mask id="mask0_62_17" style="mask-type:luminance" maskUnits="userSpaceOnUse" x="0" y="13" width="29" height="23">
<path d="M28.1301 24.1026C27.4874 25.9998 26.2674 27.6485 24.641 28.8176C23.0145 29.9868 21.0631 30.6179 19.0601 30.6226C1.62006 30.6226 0.120059 15.0626 0.0600586 13.5126V28.7026C0.0680158 29.7149 0.338472 30.7077 0.845032 31.5841C1.35159 32.4605 2.07693 33.1905 2.95007 33.7026C2.95007 33.7026 24.2001 40.4526 28.1301 24.1026Z" fill="white"/>
</mask>
<g mask="url(#mask0_62_17)">
<path opacity="0.19" d="M28.1299 24.1026C28.1299 24.1026 26.8299 31.3326 15.8899 32.7926C12.6405 33.1896 9.34322 32.8232 6.26019 31.7227C3.17717 30.6221 0.393342 28.8176 -1.87012 26.4526L-0.670105 33.4526L4.66986 39.5626L13.2899 43.0126L23.7099 40.6026L31.8999 30.6026L32.4999 26.4626L28.1299 24.1026Z" fill="url(#paint1_linear_62_17)"/>
</g>
<mask id="mask1_62_17" style="mask-type:luminance" maskUnits="userSpaceOnUse" x="0" y="13" width="29" height="23">
<path d="M28.1301 24.1026C27.4874 25.9998 26.2674 27.6485 24.641 28.8176C23.0145 29.9868 21.0631 30.6179 19.0601 30.6226C1.62006 30.6226 0.120059 15.0626 0.0600586 13.5126V28.7026C0.0680158 29.7149 0.338472 30.7077 0.845032 31.5841C1.35159 32.4605 2.07693 33.1905 2.95007 33.7026C2.95007 33.7026 24.2001 40.4526 28.1301 24.1026Z" fill="white"/>
</mask>
<g mask="url(#mask1_62_17)">
<path opacity="0.64" d="M20.4703 28.5326L19.0103 30.5926C19.0103 30.5926 2.14025 32.1726 0.0102539 13.8426L20.4703 28.5326Z" fill="url(#paint2_linear_62_17)"/>
</g>
<path d="M19.05 30.6326C16.5145 30.6326 14.0829 29.6254 12.29 27.8326C10.4972 26.0397 9.48999 23.6081 9.48999 21.0726C9.48004 20.9295 9.48004 20.7858 9.48999 20.6426C9.48999 1.86262 35.17 8.40263 35.17 8.40263L21.93 0.772629C21.0491 0.2664 20.051 0 19.035 0C18.0191 0 17.0209 0.2664 16.14 0.772629L2.91003 8.42264C2.03117 8.93002 1.30019 9.65838 0.789734 10.5355C0.279273 11.4125 0.00703542 12.4079 0 13.4226V13.5426C0.13 15.1026 1.60999 30.6326 19.05 30.6326Z" fill="url(#paint3_linear_62_17)"/>
<path d="M19.5499 11.5126C21.0214 11.5931 22.4545 12.0117 23.738 12.7357C25.0215 13.4598 26.1208 14.4699 26.9507 15.6877C27.7806 16.9054 28.3187 18.298 28.5232 19.7574C28.7277 21.2168 28.5931 22.7037 28.1299 24.1026C24.1899 40.4426 2.91992 33.7326 2.91992 33.7326L16.1299 41.3726C17.0108 41.8789 18.009 42.1453 19.025 42.1453C20.0409 42.1453 21.0391 41.8789 21.9199 41.3726L35.1699 33.7226C36.0515 33.2183 36.7847 32.4907 37.2955 31.6129C37.8064 30.7351 38.0769 29.7382 38.08 28.7226V28.5326C38 26.6026 36.6999 11.5126 19.5499 11.5126Z" fill="url(#paint4_linear_62_17)"/>
<mask id="mask2_62_17" style="mask-type:luminance" maskUnits="userSpaceOnUse" x="2" y="11" width="37" height="32">
<path d="M19.5499 11.5126C21.0214 11.5931 22.4545 12.0117 23.738 12.7357C25.0215 13.4598 26.1208 14.4699 26.9507 15.6877C27.7806 16.9054 28.3187 18.298 28.5232 19.7574C28.7277 21.2168 28.5931 22.7037 28.1299 24.1026C24.1899 40.4426 2.91992 33.7326 2.91992 33.7326L16.1299 41.3726C17.0108 41.8789 18.009 42.1453 19.025 42.1453C20.0409 42.1453 21.0391 41.8789 21.9199 41.3726L35.1699 33.7226C36.0515 33.2183 36.7847 32.4907 37.2955 31.6129C37.8064 30.7351 38.0769 29.7382 38.08 28.7226V28.5326C38 26.6026 36.6999 11.5126 19.5499 11.5126Z" fill="white"/>
</mask>
<g mask="url(#mask2_62_17)">
<path opacity="0.22" d="M19.0098 11.4526C19.0098 11.4526 28.3998 11.4526 33.4098 23.0026C37.0798 31.4926 30.7397 40.4926 30.7397 40.4926L42.6498 34.7226L45.6498 22.0526L41.4398 12.2226L30.8098 5.89262L18.7397 5.94263L18.9998 11.4526" fill="url(#paint5_linear_62_17)"/>
</g>
<mask id="mask3_62_17" style="mask-type:luminance" maskUnits="userSpaceOnUse" x="2" y="11" width="37" height="32">
<path d="M19.5499 11.5126C21.0214 11.5931 22.4545 12.0117 23.738 12.7357C25.0215 13.4598 26.1208 14.4699 26.9507 15.6877C27.7806 16.9054 28.3187 18.298 28.5232 19.7574C28.7277 21.2168 28.5931 22.7037 28.1299 24.1026C24.1899 40.4426 2.91992 33.7326 2.91992 33.7326L16.1299 41.3726C17.0108 41.8789 18.009 42.1453 19.025 42.1453C20.0409 42.1453 21.0391 41.8789 21.9199 41.3726L35.1699 33.7226C36.0515 33.2183 36.7847 32.4907 37.2955 31.6129C37.8064 30.7351 38.0769 29.7382 38.08 28.7226V28.5326C38 26.6026 36.6999 11.5126 19.5499 11.5126Z" fill="white"/>
</mask>
<g mask="url(#mask3_62_17)">
<path opacity="0.61" d="M27.63 20.2526L28.13 24.1026C27.716 26.6452 26.5497 29.0053 24.7815 30.8786C23.0133 32.752 20.7244 34.0526 18.21 34.6126C9.16002 36.9426 -0.5 32.4626 -0.5 32.4626L27.63 20.2526Z" fill="url(#paint6_linear_62_17)"/>
</g>
<path d="M35.1898 8.40263C35.1898 8.40263 9.50977 1.86262 9.50977 20.6426C9.62053 18.1824 10.6764 15.8599 12.4574 14.159C14.2384 12.4581 16.6071 11.5101 19.0698 11.5126C19.2363 11.5027 19.4032 11.5027 19.5698 11.5126C36.7398 11.5126 38.0197 26.6026 38.1097 28.5126V13.4226C38.1052 12.4035 37.8331 11.4034 37.3206 10.5224C36.8082 9.64142 36.0734 8.91046 35.1898 8.40263Z" fill="url(#paint7_linear_62_17)"/>
<mask id="mask4_62_17" style="mask-type:luminance" maskUnits="userSpaceOnUse" x="9" y="7" width="30" height="22">
<path d="M35.1898 8.40263C35.1898 8.40263 9.50977 1.86262 9.50977 20.6426C9.62053 18.1824 10.6764 15.8599 12.4574 14.159C14.2384 12.4581 16.6071 11.5101 19.0698 11.5126C19.2363 11.5027 19.4032 11.5027 19.5698 11.5126C36.7398 11.5126 38.0197 26.6026 38.1097 28.5126V13.4226C38.1052 12.4035 37.8331 11.4034 37.3206 10.5224C36.8082 9.64142 36.0734 8.91046 35.1898 8.40263Z" fill="white"/>
</mask>
<g mask="url(#mask4_62_17)">
<path opacity="0.28" d="M9.42957 21.0326C9.42957 21.0326 9.51956 14.2526 15.1096 10.9526C20.6996 7.65264 34.1096 8.53263 38.7996 14.5726C41.5196 18.0326 39.1396 6.47263 39.1396 6.47263L32.9396 3.28262L22.0995 2.28262L10.4596 7.28262L8.31958 11.9326L7.55957 17.5326L9.42957 21.0326Z" fill="url(#paint8_linear_62_17)"/>
</g>
<mask id="mask5_62_17" style="mask-type:luminance" maskUnits="userSpaceOnUse" x="9" y="7" width="30" height="22">
<path d="M35.1898 8.40263C35.1898 8.40263 9.50977 1.86262 9.50977 20.6426C9.62053 18.1824 10.6764 15.8599 12.4574 14.159C14.2384 12.4581 16.6071 11.5101 19.0698 11.5126C19.2363 11.5027 19.4032 11.5027 19.5698 11.5126C36.7398 11.5126 38.0197 26.6026 38.1097 28.5126V13.4226C38.1052 12.4035 37.8331 11.4034 37.3206 10.5224C36.8082 9.64142 36.0734 8.91046 35.1898 8.40263Z" fill="white"/>
</mask>
<g mask="url(#mask5_62_17)">
<path opacity="0.44" d="M19.0098 11.4526C19.0098 11.4526 36.9298 9.82264 38.0098 28.5126C38.0698 29.5126 38.1298 30.3126 38.1598 31.0826C39.0298 45.3626 38.0098 28.5126 38.0098 28.5126L19.0098 11.4526Z" fill="url(#paint9_linear_62_17)"/>
</g>
<g clipPath="url(#clip0_62_17)">
<path d="M55.79 12.1026C56.8685 12.0582 57.9445 12.2364 58.9511 12.626C59.9577 13.0157 60.8732 13.6085 61.6406 14.3674C62.408 15.1264 63.0109 16.0354 63.4117 17.0376C63.8125 18.0398 64.0025 19.1138 63.97 20.1926C64.0026 21.2711 63.8125 22.3446 63.4117 23.3463C63.0108 24.348 62.4077 25.2563 61.6401 26.0145C60.8726 26.7727 59.9569 27.3646 58.9504 27.7531C57.9438 28.1416 56.868 28.3185 55.79 28.2726C54.7137 28.3157 53.6401 28.1367 52.6359 27.7469C51.6317 27.3571 50.7185 26.7649 49.9531 26.007C49.1877 25.249 48.5864 24.3417 48.1868 23.3414C47.7871 22.3411 47.5976 21.2693 47.63 20.1926C47.5977 19.1155 47.7872 18.0432 48.1867 17.0424C48.5863 16.0417 49.1874 15.1337 49.9526 14.375C50.7179 13.6163 51.631 13.0231 52.6352 12.6322C53.6394 12.2413 54.7132 12.061 55.79 12.1026ZM55.79 15.1026C52.9 15.1026 51.05 17.3026 51.05 20.2326C51.05 23.1626 52.9 25.3626 55.79 25.3626C58.68 25.3626 60.54 23.1326 60.54 20.2326C60.54 17.3326 58.63 15.0626 55.79 15.0626V15.1026Z" fill="#231F20"/>
<path d="M81.7797 27.9926V16.7426L77.3697 27.9926H75.9197L71.5097 16.7426V27.9926H68.1797V12.3626H72.8497L76.6297 22.1126L80.4397 12.3626H85.1297V27.9926H81.7797Z" fill="#231F20"/>
<path d="M100.88 27.9926L93.4301 17.4926V27.9926H90.1001V12.3626H93.5201L100.76 22.4926V12.3626H104.09V27.9926H100.88Z" fill="#231F20"/>
<path d="M109.06 27.9926V12.3626H112.39V27.9926H109.06Z" fill="#231F20"/>
<path d="M117.85 24.3626C118.466 25.0608 119.223 25.6205 120.071 26.0049C120.919 26.3893 121.839 26.5896 122.77 26.5926C125.56 26.5926 126.45 25.0926 126.45 23.8926C126.45 22.0226 124.55 21.5026 122.45 20.8926C119.94 20.2426 117.15 19.5326 117.15 16.4626C117.15 13.8826 119.45 12.1326 122.52 12.1326C123.556 12.0863 124.591 12.2612 125.555 12.6457C126.519 13.0302 127.39 13.6155 128.11 14.3626L126.94 15.7426C126.361 15.1291 125.659 14.6446 124.88 14.3207C124.101 13.9967 123.263 13.8407 122.42 13.8626C120.54 13.8626 119.21 14.8626 119.21 16.3426C119.21 17.8226 121.01 18.3426 123 18.9226C125.56 19.6026 128.46 20.4026 128.46 23.6826C128.46 25.9526 126.92 28.2726 122.7 28.2726C121.58 28.3177 120.463 28.1194 119.427 27.6912C118.392 27.263 117.461 26.6153 116.7 25.7926L117.85 24.3626Z" fill="#231F20"/>
<path d="M144.33 27.9926V20.8226H135.19V27.9926H133.19V12.3626H135.19V19.0926H144.33V12.3626H146.33V27.9926H144.33Z" fill="#231F20"/>
<path d="M163.03 27.9926L161.63 24.5226H153.73L152.34 27.9926H150.19L156.47 12.3626H158.88L165.19 27.9926H163.03ZM157.69 14.0926L154.29 22.7926H161.06L157.69 14.0926Z" fill="#231F20"/>
<path d="M178.15 27.9926L174.15 21.7826H171.04V27.9926H169.04V12.3626H175.32C175.96 12.3144 176.602 12.4016 177.206 12.6187C177.809 12.8357 178.361 13.1777 178.823 13.6222C179.285 14.0667 179.649 14.6038 179.89 15.1984C180.13 15.7929 180.243 16.4316 180.22 17.0726C180.283 18.2122 179.892 19.3304 179.133 20.1829C178.375 21.0354 177.309 21.553 176.17 21.6226L180.39 27.9926H178.15ZM175.15 14.0926H171.05V20.0926H175.15C175.556 20.1192 175.964 20.0607 176.346 19.9209C176.729 19.7812 177.078 19.5632 177.372 19.2809C177.665 18.9986 177.897 18.6582 178.052 18.2814C178.206 17.9047 178.281 17.4998 178.27 17.0926C178.284 16.6846 178.211 16.2783 178.058 15.9001C177.904 15.5219 177.673 15.1802 177.379 14.8973C177.084 14.6144 176.734 14.3965 176.35 14.2579C175.966 14.1192 175.557 14.0629 175.15 14.0926Z" fill="#231F20"/>
<path d="M185.23 27.9926V12.3626H195.47V14.0926H187.17V19.0926H195.3V20.8726H187.17V26.2626H195.47V27.9926H185.23Z" fill="#231F20"/>
</g>
<defs>
<linearGradient id="paint0_linear_62_17" x1="19.9201" y1="33.2226" x2="-0.439935" y2="13.8426" gradientUnits="userSpaceOnUse">
<stop offset="0.01" stop-color="#5C28D9"/>
<stop offset="0.67" stop-color="#8279D9"/>
<stop offset="1" stop-color="#929CD9"/>
</linearGradient>
<linearGradient id="paint1_linear_62_17" x1="-1.85012" y1="33.5626" x2="32.5199" y2="33.5626" gradientUnits="userSpaceOnUse">
<stop offset="0.01" stop-color="#5C28D9"/>
<stop offset="0.67" stop-color="#8279D9"/>
<stop offset="1" stop-color="#929CD9"/>
</linearGradient>
<linearGradient id="paint2_linear_62_17" x1="17.1003" y1="29.9326" x2="-4.54973" y2="9.32261" gradientUnits="userSpaceOnUse">
<stop offset="0.01" stop-color="#5C28D9"/>
<stop offset="0.67" stop-color="#8279D9"/>
<stop offset="1" stop-color="#929CD9"/>
</linearGradient>
<linearGradient id="paint3_linear_62_17" x1="3.71" y1="25.5626" x2="30.63" y2="2.95264" gradientUnits="userSpaceOnUse">
<stop offset="0.01" stop-color="#5C28D9"/>
<stop offset="0.67" stop-color="#8279D9"/>
<stop offset="1" stop-color="#929CD9"/>
</linearGradient>
<linearGradient id="paint4_linear_62_17" x1="2.92992" y1="26.8326" x2="38.11" y2="26.8326" gradientUnits="userSpaceOnUse">
<stop offset="0.01" stop-color="#5C28D9"/>
<stop offset="0.67" stop-color="#8279D9"/>
<stop offset="1" stop-color="#929CD9"/>
</linearGradient>
<linearGradient id="paint5_linear_62_17" x1="18.7497" y1="23.1926" x2="45.6398" y2="23.1926" gradientUnits="userSpaceOnUse">
<stop offset="0.01" stop-color="#5C28D9"/>
<stop offset="0.67" stop-color="#8279D9"/>
<stop offset="1" stop-color="#929CD9"/>
</linearGradient>
<linearGradient id="paint6_linear_62_17" x1="-0.47" y1="27.7826" x2="28.16" y2="27.7826" gradientUnits="userSpaceOnUse">
<stop offset="0.01" stop-color="#5C28D9"/>
<stop offset="0.67" stop-color="#8279D9"/>
<stop offset="1" stop-color="#929CD9"/>
</linearGradient>
<linearGradient id="paint7_linear_62_17" x1="16.6298" y1="5.62263" x2="32.6898" y2="29.2226" gradientUnits="userSpaceOnUse">
<stop offset="0.01" stop-color="#5C28D9"/>
<stop offset="0.67" stop-color="#8279D9"/>
<stop offset="1" stop-color="#929CD9"/>
</linearGradient>
<linearGradient id="paint8_linear_62_17" x1="7.55957" y1="11.6826" x2="40.1496" y2="11.6826" gradientUnits="userSpaceOnUse">
<stop offset="0.01" stop-color="#5C28D9"/>
<stop offset="0.67" stop-color="#8279D9"/>
<stop offset="1" stop-color="#929CD9"/>
</linearGradient>
<linearGradient id="paint9_linear_62_17" x1="21.2798" y1="6.58264" x2="39.2698" y2="33.0127" gradientUnits="userSpaceOnUse">
<stop offset="0.01" stop-color="#5C28D9"/>
<stop offset="0.67" stop-color="#8279D9"/>
<stop offset="1" stop-color="#929CD9"/>
</linearGradient>
<clipPath id="clip0_62_17">
<rect width="147.84" height="16.17" fill="white" transform="translate(47.6299 12.1026)"/>
</clipPath>
</defs>
</svg>
