<svg id="Layer_1" data-name="Layer 1" xmlns="http://www.w3.org/2000/svg" viewBox="0 0 147.84 16.17"><defs><style>.cls-1{fill:#231f20;}</style></defs><title>logo-text</title><path class="cls-1" d="M8.16-.26a7.86,7.86,0,0,1,8.18,8.09,7.85,7.85,0,0,1-8.18,8.08A7.85,7.85,0,0,1,0,7.83,7.86,7.86,0,0,1,8.16-.26Zm0,3c-2.89,0-4.74,2.2-4.74,5.13S5.27,13,8.16,13s4.75-2.23,4.75-5.13S11,2.7,8.16,2.7Z" transform="translate(0 0.26)"/><path class="cls-1" d="M34.15,15.63V4.38L29.74,15.63H28.29L23.88,4.38V15.63H20.55V0h4.67L29,9.75,32.81,0H37.5V15.63Z" transform="translate(0 0.26)"/><path class="cls-1" d="M53.25,15.63,45.8,5.13v10.5H42.47V0h3.42l7.24,10.13V0h3.33V15.63Z" transform="translate(0 0.26)"/><path class="cls-1" d="M61.43,15.63V0h3.33V15.63Z" transform="translate(0 0.26)"/><path class="cls-1" d="M70.22,12a6.59,6.59,0,0,0,4.92,2.23c2.79,0,3.68-1.5,3.68-2.7,0-1.87-1.9-2.39-4-3-2.51-.65-5.3-1.36-5.3-4.43,0-2.58,2.3-4.33,5.37-4.33A7.31,7.31,0,0,1,80.48,2L79.31,3.38A6,6,0,0,0,74.79,1.5c-1.88,0-3.21,1-3.21,2.48s1.8,2,3.79,2.58c2.56.68,5.46,1.48,5.46,4.76,0,2.27-1.54,4.59-5.76,4.59a7.75,7.75,0,0,1-6-2.48Z" transform="translate(0 0.26)"/><path class="cls-1" d="M96.7,15.63V8.46H87.56v7.17h-2V0h2V6.73H96.7V0h2V15.63Z" transform="translate(0 0.26)"/><path class="cls-1" d="M115.4,15.63,114,12.16H106.1l-1.39,3.47h-2.15L108.84,0h2.41l6.31,15.63Zm-5.34-13.9-3.4,8.7h6.77Z" transform="translate(0 0.26)"/><path class="cls-1" d="M130.52,15.63l-4-6.21h-3.11v6.21h-2V0h6.28a4.56,4.56,0,0,1,4.9,4.71,4.32,4.32,0,0,1-4.05,4.55l4.22,6.37Zm-3-13.9h-4.1v6h4.1a2.93,2.93,0,0,0,3.12-3A2.91,2.91,0,0,0,127.52,1.73Z" transform="translate(0 0.26)"/><path class="cls-1" d="M137.6,15.63V0h10.24V1.73h-8.3v5h8.13V8.51h-8.13V13.9h8.3v1.73Z" transform="translate(0 0.26)"/></svg>