<svg width="14" height="14" viewBox="0 0 14 14" fill="none" xmlns="http://www.w3.org/2000/svg">
<path opacity="0.5" d="M6.81004 13.62C5.46315 13.62 4.14649 13.2206 3.0266 12.4723C1.9067 11.724 1.03385 10.6604 0.518417 9.41607C0.00298411 8.17171 -0.131922 6.80245 0.130844 5.48144C0.393609 4.16043 1.04222 2.94699 1.99461 1.99459C2.94701 1.0422 4.16042 0.393621 5.48143 0.130855C6.80244 -0.13191 8.17176 0.00295019 9.41612 0.518383C10.6605 1.03382 11.724 1.90666 12.4723 3.02656C13.2206 4.14646 13.62 5.4631 13.62 6.80999C13.6173 8.61531 12.8991 10.3459 11.6225 11.6225C10.346 12.899 8.61535 13.6174 6.81004 13.62ZM6.81004 0.949993C5.65104 0.949993 4.5181 1.29368 3.55443 1.93759C2.59076 2.58149 1.83963 3.4967 1.3961 4.56747C0.952573 5.63825 0.836497 6.8165 1.06261 7.95323C1.28872 9.08996 1.84683 10.1341 2.66637 10.9536C3.4859 11.7732 4.53 12.3313 5.66673 12.5574C6.80346 12.7835 7.98182 12.6675 9.0526 12.2239C10.1234 11.7804 11.0386 11.0293 11.6825 10.0656C12.3264 9.10197 12.67 7.96899 12.67 6.80999C12.6674 5.25664 12.0492 3.76767 10.9508 2.66928C9.8524 1.57089 8.3634 0.952637 6.81004 0.949993ZM7.25999 7.66999C7.25999 7.66999 7.36006 7.45 7.83006 7.14C8.17267 6.94298 8.4465 6.64553 8.61461 6.28785C8.78272 5.93017 8.83695 5.5295 8.77 5.14C8.69973 4.73928 8.50889 4.36954 8.22301 4.08009C7.93713 3.79064 7.56984 3.59525 7.17003 3.52C6.87968 3.46836 6.58151 3.48156 6.29686 3.55867C6.01221 3.63577 5.74813 3.77488 5.52354 3.96601C5.29896 4.15715 5.11941 4.39559 4.99779 4.66424C4.87616 4.9329 4.8155 5.22513 4.82005 5.52C4.82005 5.6473 4.87054 5.7694 4.96056 5.85942C5.05057 5.94943 5.17273 6 5.30003 6C5.36261 6.00001 5.42448 5.98753 5.48216 5.96328C5.53985 5.93904 5.59219 5.90353 5.63597 5.85882C5.67975 5.81411 5.71414 5.76112 5.73717 5.70294C5.76019 5.64476 5.77134 5.58256 5.77 5.52C5.77046 5.36545 5.8047 5.21287 5.87035 5.07295C5.93599 4.93303 6.03145 4.80915 6.15001 4.71C6.26674 4.6096 6.40513 4.5375 6.55431 4.49934C6.70348 4.46118 6.85938 4.45799 7.00999 4.49C7.2155 4.53313 7.40379 4.63577 7.55138 4.78514C7.69897 4.9345 7.79941 5.12399 7.84007 5.33C7.87543 5.54122 7.84195 5.75821 7.74474 5.94903C7.64752 6.13985 7.49168 6.29442 7.30003 6.39C6.88979 6.61676 6.56095 6.96652 6.35997 7.39C6.33967 7.44906 6.33142 7.51158 6.33556 7.57389C6.33969 7.63621 6.35621 7.69708 6.38414 7.75294C6.41207 7.8088 6.45078 7.85854 6.49815 7.89924C6.54552 7.93994 6.60059 7.9708 6.66002 7.99C6.70957 7.99946 6.76049 7.99946 6.81004 7.99C6.90922 7.99097 7.00619 7.96054 7.08702 7.90306C7.16785 7.84558 7.22834 7.76399 7.25999 7.66999ZM7.46007 9.66999C7.46009 9.50197 7.39398 9.34068 7.27611 9.22094C7.15824 9.1012 6.99806 9.03262 6.83006 9.02999C6.73998 9.01867 6.64851 9.02664 6.56175 9.05337C6.47499 9.0801 6.39485 9.125 6.32677 9.18505C6.25868 9.24511 6.2042 9.31896 6.16685 9.40171C6.12951 9.48446 6.11021 9.57422 6.11021 9.665C6.11021 9.75579 6.12951 9.84553 6.16685 9.92828C6.2042 10.011 6.25868 10.0849 6.32677 10.145C6.39485 10.205 6.47499 10.2499 6.56175 10.2766C6.64851 10.3034 6.73998 10.3113 6.83006 10.3C6.91364 10.3 6.99638 10.2834 7.07347 10.2511C7.15056 10.2188 7.2204 10.1715 7.27904 10.1119C7.33767 10.0524 7.38396 9.98175 7.41502 9.90416C7.44609 9.82656 7.46139 9.74357 7.46007 9.66V9.66999Z" fill="#2C2D2D"/>
</svg>
