<svg width="20" height="20" viewBox="0 0 20 20" fill="none" xmlns="http://www.w3.org/2000/svg">
<g clipPath="url(#clip0_93_11)">
<path d="M17.9 12.3001C17 11.7001 15.9 11.4001 14.8 11.6001C13.8 11.8001 12.9 12.3001 12.2 13.1001L7.8 10.9001C8 10.2001 8 9.40008 7.8 8.70008L12.2 6.50008C13.5 8.20008 15.8 8.60008 17.5 7.50008C19.2 6.40008 19.9 4.30008 19.1 2.40008C18.3 0.500084 16.2 -0.399916 14.3 0.200084C13.3 0.500084 12.6 1.10008 12.1 1.90008C11.5 2.90008 11.3 4.00008 11.6 5.20008L7.2 7.30008C6.6 6.40008 5.6 5.90008 4.4 5.80008C3.2 5.60008 2 6.10008 1.2 6.90008C0.4 7.70008 0 8.70008 0 9.80008C0 10.9001 0.4 11.9001 1.2 12.7001C2 13.5001 3.2 14.0001 4.4 13.8001C5.5 13.7001 6.6 13.1001 7.2 12.2001L11.6 14.4001C11 16.7001 12.4 18.6001 14 19.3001C14.5 19.5001 15 19.6001 15.4 19.6001C16.8 19.6001 18.2 18.8001 18.9 17.5001C20 15.7001 19.5 13.5001 17.9 12.3001ZM15.5 18.1001C14.1 18.1001 13 17.0001 13 15.6001C13 14.9001 13.3 14.3001 13.7 13.8001C14.1 13.3001 14.8 13.1001 15.5 13.1001C16.2 13.1001 16.8 13.4001 17.3 13.8001C17.8 14.3001 18 14.9001 18 15.6001C18.1 16.9001 16.9 18.1001 15.5 18.1001ZM13 4.10008C13 3.40008 13.3 2.80008 13.8 2.30008C14.3 1.80008 14.9 1.60008 15.6 1.60008C17 1.60008 18.1 2.80008 18.1 4.20008C18.1 4.90008 17.8 5.50008 17.3 6.00008C16.8 6.50008 16.2 6.70008 15.5 6.70008C14.8 6.70008 14.2 6.40008 13.7 5.90008C13.2 5.30008 13 4.70008 13 4.10008ZM4 12.3001C2.6 12.3001 1.5 11.2001 1.5 9.80008C1.5 8.40008 2.6 7.30008 4 7.30008C4.7 7.30008 5.3 7.60008 5.8 8.10008C6.3 8.60008 6.5 9.20008 6.5 9.90008C6.6 11.2001 5.4 12.3001 4 12.3001Z" fill="#7650E3"/>
</g>
<defs>
<clipPath id="clip0_93_11">
<rect width="19.6" height="19.6" fill="white"/>
</clipPath>
</defs>
</svg>
