<?xml version="1.0" encoding="utf-8"?>
<!-- Generator: Adobe Illustrator 24.3.0, SVG Export Plug-In . SVG Version: 6.00 Build 0)  -->
<svg version="1.1" id="katman_1" xmlns="http://www.w3.org/2000/svg" xmlns:xlink="http://www.w3.org/1999/xlink" x="0px" y="0px"
	 viewBox="0 0 2524.8 2676" style="enable-background:new 0 0 2524.8 2676;" xml:space="preserve">
<style type="text/css">
	.st0{fill:none;}
	.st1{fill:#542ED2;}
</style>
<g>
	<g>
		<g>
			<path class="st0" d="M1920.2,1381.9L1920.2,1381.9l-0.1-756.6l-225,0.1c-272.3-0.1-309.9-28.4-309.9-303.6l0.1-222.7H307.3
				C191.8,99,98.1,192.7,98.1,308.3l0,945.9v369.7c1.1,238.6,20.5,410.7,307,410.6l1024-0.1c7-42.7,19.1-84.3,36-124.5
				c27.8-65.7,67.5-124.7,118.2-175.3c50.6-50.6,109.6-90.4,175.3-118.2c51.7-21.9,105.9-35.6,161.7-40.9l0-96.2V1381.9z"/>
		</g>
		<g>
			<path class="st0" d="M1594.2,525.2l248.7-0.4c-27.6-31.3-58.4-59.9-88.2-89.1l-143.4-139.5c-29.7-28.9-94.5-98.3-125.7-119
				l-0.2,182.7C1485.3,458,1474.2,525.1,1594.2,525.2z"/>
		</g>
		<g>
			<path class="st0" d="M1973.3,1662.9c-254.5,0-461.6,207.1-461.6,461.6s207.1,461.6,461.6,461.6s461.6-207.1,461.6-461.6
				S2227.8,1662.9,1973.3,1662.9z M2170.6,2172.1h-175.7v175.7c0,24.9-20.1,45-45,45s-45-20.1-45-45v-175.7h-175.7
				c-24.9,0-45-20.1-45-45s20.1-45,45-45h175.7v-175.7c0-24.9,20.1-45,45-45s45,20.1,45,45v175.7h175.7c24.9,0,45,20.1,45,45
				S2195.5,2172.1,2170.6,2172.1z"/>
		</g>
		<g>
			<path class="st1" d="M0.6,99c-1.1,0-0.5,0.1,0,0.1C0.6,99.1,0.6,99,0.6,99L0.6,99z"/>
		</g>
		<g>
			<path class="st1" d="M0.6,99.1c0,0,0,0.1,0,0.1C1.6,99.2,1.1,99.1,0.6,99.1z"/>
		</g>
		<g>
			<path class="st1" d="M1920.2,1479.2l0,96.2c17.5-1.7,35.2-2.5,53-2.5c16.2,0,32.3,0.7,48.3,2.1l0-317.2v254L1920.2,1479.2z"/>
		</g>
		<g>
			<path class="st1" d="M1429,2034.2l-1024,0.1c-286.5,0.1-305.9-172-307-410.6v86.3H8.9L34.3,1305l63.7-50.8l0-945.9
				C98.1,192.7,191.8,99,307.3,99h1078.1l-0.1,222.7c0,275.2,37.5,303.5,309.9,303.6l225-0.1l0.1,756.6h0V1245l101.3,12.7
				l-0.1-597.7c-0.8-140.6-65.1-166.6-160.5-258.6L1600,147.7C1452.4,6.8,1487.6,0.7,1265.4,1L1060.8,1C919.9,1.1,561.4,0,287.5,0
				C129.1,0,0.8,128.4,0.9,286.7c0.2,483.2,0.3,1299.6,0.3,1299.6c0,143.8-10.6,361.8,98.9,472.5c90.3,91.3,212.2,80.2,330.1,80.2
				l151.5-0.1l840.1,0.1c-0.1-4.8-0.2-9.6-0.2-14.5C1421.7,2094,1424.1,2063.8,1429,2034.2z M1485.4,360l0.2-182.7
				c31.1,20.6,95.9,90.1,125.7,119l143.4,139.5c29.8,29.2,60.6,57.8,88.2,89.1l-248.7,0.4C1474.2,525.1,1485.3,458,1485.4,360z"/>
		</g>
		<g>
			<path class="st1" d="M2481.5,1909.8c-27.8-65.7-67.5-124.7-118.2-175.3c-50.6-50.6-109.6-90.4-175.3-118.2
				c-53.2-22.5-109-36.3-166.5-41.3c-16-1.4-32.1-2.1-48.3-2.1c-17.8,0-35.5,0.8-53,2.5c-55.7,5.3-109.9,19-161.7,40.9
				c-65.7,27.8-124.7,67.5-175.3,118.2c-50.6,50.6-90.4,109.6-118.2,175.3c-17,40.2-29,81.8-36,124.5c-4.9,29.6-7.3,59.7-7.3,90.2
				c0,4.8,0.1,9.6,0.2,14.5c1.8,69.3,16.3,136.6,43.2,200.3c27.8,65.7,67.5,124.7,118.2,175.3c50.6,50.6,109.6,90.4,175.3,118.2
				c68,28.8,140.3,43.4,214.7,43.4s146.7-14.6,214.7-43.4c65.7-27.8,124.7-67.5,175.3-118.2c50.6-50.6,90.4-109.6,118.2-175.3
				c28.8-68,43.4-140.3,43.4-214.7S2510.3,1977.8,2481.5,1909.8z M1973.3,2586c-254.5,0-461.6-207.1-461.6-461.6
				s207.1-461.6,461.6-461.6s461.6,207.1,461.6,461.6S2227.8,2586,1973.3,2586z"/>
		</g>
		<g>
			<path class="st1" d="M1994.9,1906.4c0-24.9-20.1-45-45-45s-45,20.1-45,45v175.7h90V1906.4z"/>
		</g>
		<g>
			<path class="st1" d="M1904.9,2347.8c0,24.9,20.1,45,45,45s45-20.1,45-45v-175.7h-90V2347.8z"/>
		</g>
		<g>
			<path class="st1" d="M2170.6,2082.1h-175.7h-90h-175.7c-24.9,0-45,20.1-45,45s20.1,45,45,45h175.7h90h175.7c24.9,0,45-20.1,45-45
				S2195.5,2082.1,2170.6,2082.1z"/>
		</g>
		<g>
			<polygon class="st1" points="34.3,1305 8.9,1710.1 98,1710.1 98,1623.8 98,1254.1 			"/>
		</g>
		<g>
			<polygon class="st1" points="1920.2,1381.9 1920.2,1479.2 2021.5,1511.8 2021.5,1257.8 2021.5,1257.7 1920.2,1245 			"/>
		</g>
	</g>
	<g id="_527259640">
		<g id="_527259928">
			<path class="st1" d="M786.7,1504.2c-17.5,0-35-4.6-50.9-13.8c-31.9-18.4-50.9-51.4-50.9-88.2V863.9c0-36.8,19-69.8,50.9-88.2
				c31.9-18.4,70-18.4,101.9,0l466.2,269.2c31.9,18.4,50.9,51.4,50.9,88.2s-19,69.8-50.9,88.2l-466.2,269.2
				C821.7,1499.6,804.2,1504.2,786.7,1504.2z M786.7,851.9c-2.4,0-4.4,0.8-6,1.7c-2.7,1.6-5.9,4.6-5.9,10.3v538.3
				c0,5.7,3.2,8.7,5.9,10.3c2.7,1.6,7,2.8,11.9,0l466.2-269.2c4.9-2.8,5.9-7.2,5.9-10.3s-1-7.4-5.9-10.3L792.6,853.6
				C790.5,852.4,788.5,851.9,786.7,851.9z"/>
		</g>
	</g>
</g>
</svg>
