<svg xmlns="http://www.w3.org/2000/svg" xml:space="preserve" viewBox="0 0 2524.8 2676"><path fill="none" d="m1920.2 1381.9-.1-756.6-225 .1c-272.3-.1-309.9-28.4-309.9-303.6l.1-222.7h-1078C191.8 99 98.1 192.7 98.1 308.3v1315.6c1.1 238.6 20.5 410.7 307 410.6l1024-.1c7-42.7 19.1-84.3 36-124.5 27.8-65.7 67.5-124.7 118.2-175.3 50.6-50.6 109.6-90.4 175.3-118.2 51.7-21.9 105.9-35.6 161.7-40.9v-193.6z"/><path fill="none" d="m1594.2 525.2 248.7-.4c-27.6-31.3-58.4-59.9-88.2-89.1l-143.4-139.5c-29.7-28.9-94.5-98.3-125.7-119l-.2 182.7c-.1 98.1-11.2 165.2 108.8 165.3m379.1 1137.7c-254.5 0-461.6 207.1-461.6 461.6s207.1 461.6 461.6 461.6 461.6-207.1 461.6-461.6-207.1-461.6-461.6-461.6m197.3 509.2h-175.7v175.7c0 24.9-20.1 45-45 45s-45-20.1-45-45v-175.7h-175.7c-24.9 0-45-20.1-45-45s20.1-45 45-45h175.7v-175.7c0-24.9 20.1-45 45-45s45 20.1 45 45v175.7h175.7c24.9 0 45 20.1 45 45s-20.1 45-45 45"/><path fill="#7650e3" d="M.6 99c-1.1 0-.5.1 0 .1zm0 .1v.1c1 0 .5-.1 0-.1m1919.6 1380.1v96.2c17.5-1.7 35.2-2.5 53-2.5q24.3 0 48.3 2.1v-317.2 254z"/><path fill="#7650e3" d="m1429 2034.2-1024 .1c-286.5.1-305.9-172-307-410.6v86.3H8.9l25.4-405 63.7-50.8V308.3C98.1 192.7 191.8 99 307.3 99h1078.1l-.1 222.7c0 275.2 37.5 303.5 309.9 303.6l225-.1.1 756.6V1245l101.3 12.7-.1-597.7c-.8-140.6-65.1-166.6-160.5-258.6l-261-253.7C1452.4 6.8 1487.6.7 1265.4 1h-204.6c-140.9.1-499.4-1-773.3-1C129.1 0 .8 128.4.9 286.7c.2 483.2.3 1299.6.3 1299.6 0 143.8-10.6 361.8 98.9 472.5 90.3 91.3 212.2 80.2 330.1 80.2l151.5-.1 840.1.1c-.1-4.8-.2-9.6-.2-14.5.1-30.5 2.5-60.7 7.4-90.3M1485.4 360l.2-182.7c31.1 20.6 95.9 90.1 125.7 119l143.4 139.5c29.8 29.2 60.6 57.8 88.2 89.1l-248.7.4c-120-.2-108.9-67.3-108.8-165.3"/><path fill="#7650e3" d="M2481.5 1909.8c-27.8-65.7-67.5-124.7-118.2-175.3-50.6-50.6-109.6-90.4-175.3-118.2-53.2-22.5-109-36.3-166.5-41.3q-24-2.1-48.3-2.1c-17.8 0-35.5.8-53 2.5-55.7 5.3-109.9 19-161.7 40.9-65.7 27.8-124.7 67.5-175.3 118.2-50.6 50.6-90.4 109.6-118.2 175.3-17 40.2-29 81.8-36 124.5-4.9 29.6-7.3 59.7-7.3 90.2 0 4.8.1 9.6.2 14.5 1.8 69.3 16.3 136.6 43.2 200.3 27.8 65.7 67.5 124.7 118.2 175.3 50.6 50.6 109.6 90.4 175.3 118.2 68 28.8 140.3 43.4 214.7 43.4s146.7-14.6 214.7-43.4c65.7-27.8 124.7-67.5 175.3-118.2 50.6-50.6 90.4-109.6 118.2-175.3 28.8-68 43.4-140.3 43.4-214.7s-14.6-146.8-43.4-214.8M1973.3 2586c-254.5 0-461.6-207.1-461.6-461.6s207.1-461.6 461.6-461.6 461.6 207.1 461.6 461.6-207.1 461.6-461.6 461.6"/><path fill="#7650e3" d="M1994.9 1906.4c0-24.9-20.1-45-45-45s-45 20.1-45 45v175.7h90zm-90 441.4c0 24.9 20.1 45 45 45s45-20.1 45-45v-175.7h-90zm265.7-265.7h-441.4c-24.9 0-45 20.1-45 45s20.1 45 45 45h441.4c24.9 0 45-20.1 45-45s-20.1-45-45-45M34.3 1305 8.9 1710.1H98v-456zm1885.9 76.9v97.3l101.3 32.6v-254.1l-101.3-12.7zM786.7 1504.2c-17.5 0-35-4.6-50.9-13.8-31.9-18.4-50.9-51.4-50.9-88.2V863.9c0-36.8 19-69.8 50.9-88.2s70-18.4 101.9 0l466.2 269.2c31.9 18.4 50.9 51.4 50.9 88.2s-19 69.8-50.9 88.2l-466.2 269.2c-16 9.1-33.5 13.7-51 13.7m0-652.3c-2.4 0-4.4.8-6 1.7-2.7 1.6-5.9 4.6-5.9 10.3v538.3c0 5.7 3.2 8.7 5.9 10.3s7 2.8 11.9 0l466.2-269.2c4.9-2.8 5.9-7.2 5.9-10.3s-1-7.4-5.9-10.3L792.6 853.6c-2.1-1.2-4.1-1.7-5.9-1.7"/></svg>