<svg xmlns="http://www.w3.org/2000/svg" xml:space="preserve" viewBox="0 0 70 73.2"><defs><path id="a" fill="none" d="M0-6.1h6.1V0H0z"/></defs><pattern id="b" width="6.1" height="6.1" y="73.2" overflow="visible" patternUnits="userSpaceOnUse" viewBox="0 -6.1 6.1 6.1"><use href="#a"/><use href="#a"/><path fill="#403fb4" d="M0-6.1h6.1V0H0z"/></pattern><pattern id="c" href="#b" patternTransform="matrix(2.8317 0 0 -2.8317 28879.404 -46693.129)"/><path fill="url(#c)" d="M64 16.8V9.7c0-2.6-.9-5.1-2.7-6.9-2.4-2.4-5.8-3.3-9-2.4L2 14.1c-1.2.3-2 1.4-2 2.6v47c0 5.2 4.3 9.5 9.5 9.5h51c5.2 0 9.5-4.2 9.5-9.5V25.5c0-3.9-2.5-7.3-6-8.7M53.6 4.7c1.4-.4 2.9-.1 4.1.8s1.8 2.3 1.8 3.7V16H12.1zM65.5 50H46.9c-3.5 0-6.4-2.9-6.4-6.4 0-1.7.7-3.3 1.9-4.5s2.8-1.9 4.5-1.9h18.6zM46.9 32.6c-2.9 0-5.6 1.1-7.7 3.2-2 2-3.2 4.8-3.2 7.7 0 6 4.9 10.9 10.9 10.9h18.6v9.3c0 2.7-2.2 5-5 5h-51c-2.7 0-4.9-2.2-4.9-5V21.2h58.2c1.6.8 2.7 2.5 2.7 4.4v7.1H46.9z"/></svg>