<svg xmlns="http://www.w3.org/2000/svg" width="25" height="19" fill="#fff" viewBox="0 0 25 19"><path d="m23.897 4.761-.66-.73-3.32-3.7a.88.88 0 0 0-.72-.33H4.957a.84.84 0 0 0-.68.29l-2.76 3.09-1.27 1.41a.63.63 0 0 0 0 1l.45.51c.4.46.83.95 1.26 1.4s3.44 3.85 6.11 6.87l3.46 3.91a.82.82 0 0 0 .57.33.8.8 0 0 0 .56-.33l11.25-12.65a.65.65 0 0 0-.01-1.07m-6.62-.09 2.15-3.11 2.79 3.11zm-.88 1.77v-.14q.078-.203.11-.42h5.68l-2.77 3.11-5.38 6.06-.6.68zm-3-5.24h4.82l-2.13 3.11zm1.93 4.69-3.24 10.32-3.25-10.32zm-6-1.22 2.75-3.16 2.74 3.16zm-7.38 0 2.79-3.11 2.13 3.11zm4-3.46h4.82l-2.69 3.1zm-2.6 4.67h4.28v.07l2.37 7.52.71 2.27-8.76-9.85z"/></svg>